<svg width="72" height="72" viewBox="0 0 72 72" fill="none" xmlns="http://www.w3.org/2000/svg">
<path d="M63 31.5113H60.75V4.51126H56.25V31.5113H54C52.8069 31.5125 51.663 31.9869 50.8193 32.8306C49.9757 33.6743 49.5012 34.8181 49.5 36.0113V40.5113C49.5012 41.7044 49.9757 42.8483 50.8193 43.6919C51.663 44.5356 52.8069 45.0101 54 45.0113H56.25V67.5113H60.75V45.0113H63C64.1929 45.0095 65.3365 44.5348 66.18 43.6913C67.0235 42.8477 67.4982 41.7042 67.5 40.5113V36.0113C67.4988 34.8181 67.0243 33.6743 66.1807 32.8306C65.337 31.9869 64.1931 31.5125 63 31.5113ZM63 40.5113H54V36.0113H63V40.5113ZM40.5 13.5113H38.25V4.51126H33.75V13.5113H31.5C30.3069 13.5125 29.163 13.9869 28.3193 14.8306C27.4757 15.6743 27.0012 16.8182 27 18.0113V22.5113C27.0012 23.7044 27.4757 24.8483 28.3193 25.6919C29.163 26.5356 30.3069 27.0101 31.5 27.0113H33.75V67.5113H38.25V27.0113H40.5C41.6931 27.0101 42.837 26.5356 43.6807 25.6919C44.5243 24.8483 44.9988 23.7044 45 22.5113V18.0113C44.9988 16.8182 44.5243 15.6743 43.6807 14.8306C42.837 13.9869 41.6931 13.5125 40.5 13.5113ZM40.5 22.5113H31.5V18.0113H40.5V22.5113ZM18 45.0113H15.75V4.51126H11.25V45.0113H9C7.80689 45.0125 6.66299 45.4869 5.81934 46.3306C4.97568 47.1743 4.50119 48.3182 4.5 49.5113V54.0113C4.50119 55.2044 4.97568 56.3483 5.81934 57.1919C6.66299 58.0356 7.80689 58.5101 9 58.5113H11.25V67.5113H15.75V58.5113H18C19.1931 58.5101 20.337 58.0356 21.1807 57.1919C22.0243 56.3483 22.4988 55.2044 22.5 54.0113V49.5113C22.4988 48.3182 22.0243 47.1743 21.1807 46.3306C20.337 45.4869 19.1931 45.0125 18 45.0113ZM18 54.0113H9V49.5113H18V54.0113Z" fill="white"/>
</svg>
