<svg width="120" height="120" viewBox="0 0 120 120" fill="none" xmlns="http://www.w3.org/2000/svg">
<path d="M101.2 7.5H93.7V52.5C96.2 52.5 98.7 52.5 101.2 52.5V7.5Z" fill="#343A40"/>
<path d="M93.8 112.5H101.3V75C98.8 75 96.3 75 93.8 75V112.5Z" fill="#343A40"/>
<path d="M63.8 7.5H56.3V22.5C59.1 22.5 61 22.5 63.8 22.5V7.5Z" fill="#343A40"/>
<path d="M72.8 24.7C71.4 23.3 69.5 22.5 67.5 22.5H52.5C50.5 22.5 48.6 23.3 47.2 24.7C45.8 26.1 45 28 45 30V37.5C45 39.5 45.8 41.4 47.2 42.8C48.6 44.2 50.5 45 52.5 45H56.3H63.8H67.6C69.6 45 71.5 44.2 72.9 42.8C74.3 41.4 75.1 39.5 75.1 37.5V30C75 28 74.2 26.1 72.8 24.7ZM67.5 37.5H52.5V30H67.5V37.5Z" fill="#DD9933"/>
<path d="M110.3 54.7C108.9 53.3 107 52.5 105 52.5H90C88 52.5 86.1 53.3 84.7 54.7C83.3 56.1 82.5 58 82.5 60V67.5C82.5 69.5 83.3 71.4 84.7 72.8C86.1 74.2 88 75 90 75H93.8H101.3H105.1C107.1 75 109 74.2 110.4 72.8C111.8 71.4 112.6 69.5 112.6 67.5V60C112.5 58 111.7 56.1 110.3 54.7ZM105 67.5H90V60H105V67.5Z" fill="#DD9933"/>
<path d="M56.2 112.5H63.7V44.9C60.9 44.9 59 44.9 56.2 44.9V112.5Z" fill="#343A40"/>
<path d="M26.2 75V7.5H18.7V75H26.2Z" fill="#343A40"/>
<path d="M18.8 97.5V112.5H26.3V97.5C24.1 97.5 21.4 97.5 19.1 97.5C18.9 97.5 18.8 97.5 18.8 97.5Z" fill="#343A40"/>
<path d="M35.3 77.2C33.9 75.8 32 75 30 75H26.2H18.7H15C13 75 11.1 75.8 9.7 77.2C8.3 78.6 7.5 80.5 7.5 82.5V90C7.5 92 8.3 93.9 9.7 95.3C11.1 96.7 13 97.5 15 97.5H30C32 97.5 33.9 96.7 35.3 95.3C36.7 93.9 37.5 92 37.5 90V82.5C37.5 80.5 36.7 78.6 35.3 77.2ZM30 90H15V82.5H30V90Z" fill="#DD9933"/>
</svg>
