<svg width="120" height="120" viewBox="0 0 120 120" fill="none" xmlns="http://www.w3.org/2000/svg">
<path d="M22.5 112.5H97.5C99.5 112.5 101.4 111.7 102.8 110.3C104.2 108.9 105 107 105 105V82.5C105 80.5 104.2 78.6 102.8 77.2C101.4 75.8 99.5 75 97.5 75H22.5C20.5 75 18.6 75.8 17.2 77.2C15.8 78.6 15 80.5 15 82.5V105C15 107 15.8 108.9 17.2 110.3C18.6 111.7 20.5 112.5 22.5 112.5ZM22.5 82.5H97.5V105H22.5V82.5Z" fill="#343A40"/>
<path d="M33.8 97.5C35.9 97.5 37.6 95.8 37.6 93.7C37.6 91.6 35.8 90 33.8 90C31.8 90 30 91.7 30 93.8C30 95.9 31.7 97.5 33.8 97.5Z" fill="#DD9933"/>
<path d="M59.9999 60C63.0999 60 65.5999 57.5001 65.5999 54.4001C65.5999 51.3001 63.0999 48.8 59.9999 48.8C56.8999 48.8 54.3999 51.3001 54.3999 54.4001C54.3999 57.5001 56.8999 60 59.9999 60Z" fill="#DD9933"/>
<path d="M40.3999 38.7C42.8999 35.9 45.8999 33.7 49.1999 32.2C52.5999 30.7 56.1999 29.9 59.8999 29.9C63.5999 29.9 67.1999 30.7 70.5999 32.2C73.9999 33.7 76.9999 35.9 79.3999 38.7L73.7999 43.7C71.9999 41.7 69.8999 40.2 67.4999 39.1C65.0999 38 62.4999 37.5 59.7999 37.5C57.1999 37.5 54.5999 38.1 52.0999 39.1C49.6999 40.2 47.4999 41.7 45.7999 43.7L40.3999 38.7Z" fill="#DD9933"/>
<path d="M27 27.8C30.8 22.7 35.8 18.5 41.6 15.7C47.3 12.8 53.6 11.3 60 11.3C66.4 11.3 72.7 12.8 78.4 15.7C84.1 18.6 89.1 22.7 93 27.8L87 32.3C83.9 28.1 79.8 24.7 75.1 22.4C70.4 20.1 65.2 18.8 60 18.8C54.8 18.8 49.6 20 44.9 22.4C40.2 24.7 36.1 28.1 33 32.3L27 27.8Z" fill="#DD9933"/>
</svg>
