<svg width="120" height="120" viewBox="0 0 120 120" fill="none" xmlns="http://www.w3.org/2000/svg">
<path d="M30 52.5H52.5V60H30V52.5ZM30 22.5H75V30H30V22.5ZM30 37.5H75V45H30V37.5ZM30 90H52.5V97.5H30V90ZM112.5 90V82.5H104.6C104.1 80.2 103.2 77.9 101.9 75.9L107.5 70.3L102.2 65L96.6 70.6C94.6 69.3 92.4 68.3 90 67.9V60H82.5V67.9C80.2 68.4 77.9 69.3 75.9 70.6L70.3 65L65 70.3L70.6 75.9C69.3 77.9 68.3 80.1 67.9 82.5H60V90H67.9C68.4 92.3 69.3 94.6 70.6 96.6L65 102.2L70.3 107.5L75.9 101.9C77.9 103.2 80.1 104.2 82.5 104.6V112.5H90V104.6C92.3 104.1 94.6 103.2 96.6 101.9L102.2 107.5L107.5 102.2L101.9 96.6C103.2 94.6 104.2 92.4 104.6 90H112.5ZM86.2 97.5C84 97.5 81.8 96.8 79.9 95.6C78.1 94.4 76.6 92.6 75.8 90.6C74.9 88.5 74.7 86.3 75.2 84.1C75.6 81.9 76.7 79.9 78.3 78.3C79.9 76.7 81.9 75.7 84.1 75.2C86.3 74.8 88.5 75 90.6 75.8C92.7 76.7 94.4 78.1 95.6 79.9C96.8 81.8 97.5 83.9 97.5 86.2C97.5 89.2 96.3 92 94.2 94.2C92.1 96.3 89.2 97.5 86.2 97.5Z" fill="#DD9933"/>
<path d="M52.5 112.5H22.5C20.5 112.5 18.6 111.7 17.2 110.3C15.8 108.9 15 107 15 105V15C15 13 15.8 11.1 17.2 9.7C18.6 8.3 20.5 7.5 22.5 7.5H82.5C84.5 7.5 86.4 8.3 87.8 9.7C89.2 11.1 90 13 90 15V52.5H82.5V15H22.5V105H52.5V112.5Z" fill="#343A40"/>
</svg>
