<svg width="120" height="120" viewBox="0 0 120 120" fill="none" xmlns="http://www.w3.org/2000/svg">
<path d="M110.3 39.7C108.9 38.3 107 37.5 105 37.5H90V7.5H82.5V37.5H48.8V30H41.3V37.5H30V30H22.5V37.5H15C13 37.5 11.1 38.3 9.7 39.7C8.3 41.1 7.5 43 7.5 45V105C7.5 107 8.3 108.9 9.7 110.3C11.1 111.7 13 112.5 15 112.5H105C107 112.5 108.9 111.7 110.3 110.3C111.7 108.9 112.5 107 112.5 105V45C112.5 43 111.7 41.1 110.3 39.7ZM105 105H15V45H105V105Z" fill="#343A40"/>
<path d="M37.5 97.5C34.5 97.5 31.6 96.6 29.2 95C26.7 93.4 24.8001 91 23.7 88.3C22.6 85.6 22.3 82.5 22.8 79.6C23.4 76.7 24.8 74 26.9 71.9C29 69.8 31.7 68.4 34.6 67.8C37.5 67.2 40.5 67.5 43.3 68.7C46 69.8 48.4 71.8 50 74.2C51.6 76.7 52.5 79.6 52.5 82.5C52.5 86.5 50.9 90.3 48.1 93.1C45.3 95.9 41.5 97.5 37.5 97.5ZM37.5 75C36 75 34.6 75.4 33.3 76.3C32.1 77.1 31.1 78.3 30.5 79.7C30 81 29.9 82.5 30.1 84C30.4 85.5 31.1 86.8 32.2001 87.8C33.2001 88.8 34.6 89.6 36 89.9C37.5 90.2 39 90 40.3 89.5C41.7 88.9 42.8001 88 43.7001 86.7C44.5 85.5 45 84 45 82.5C45 80.5 44.2 78.6 42.8 77.2C41.4 75.8 39.5 75 37.5 75ZM26.2001 52.5H48.7001V60H26.2001V52.5ZM63.8 60H97.6V67.5H63.8V60ZM63.8 75H97.6V82.5H63.8V75ZM63.8 90H97.6V97.5H63.8V90Z" fill="#DD9933"/>
</svg>
