<svg width="120" height="120" viewBox="0 0 120 120" fill="none" xmlns="http://www.w3.org/2000/svg">
<path d="M52.5 62.2125L42.7875 52.5L37.5 57.7875L52.5 72.7875L82.5 42.7875L77.2125 37.5L52.5 62.2125Z" fill="#DD9933"/>
<path d="M60 112.5L36.84 100.151C30.2375 96.6387 24.7162 91.3945 20.8685 84.9815C17.0208 78.5684 14.9921 71.2287 15 63.75V15C15.002 13.0115 15.7928 11.105 17.1989 9.69889C18.605 8.2928 20.5115 7.50199 22.5 7.5H97.5C99.4885 7.50199 101.395 8.2928 102.801 9.69889C104.207 11.105 104.998 13.0115 105 15V63.75C105.008 71.2287 102.979 78.5684 99.1316 84.9815C95.2839 91.3945 89.7625 96.6387 83.16 100.151L60 112.5ZM22.5 15V63.75C22.4938 69.8693 24.1542 75.8747 27.3029 81.1217C30.4516 86.3687 34.9698 90.6591 40.3725 93.5325L60 103.999L79.6275 93.5363C85.0308 90.6626 89.5494 86.3716 92.6981 81.1238C95.8469 75.8761 97.5069 69.8699 97.5 63.75V15H22.5Z" fill="#343A40"/>
</svg>
