<svg width="120" height="120" viewBox="0 0 120 120" fill="none" xmlns="http://www.w3.org/2000/svg">
<path d="M97.5 7.5H112.5V22.5H97.5V7.5ZM97.5 30H112.5V45H97.5V30ZM75 7.5H90V22.5H75V7.5ZM75 30H90V45H75V30Z" fill="#DD9933"/>
<path d="M105 60V82.5H15V22.5H60V15H15C13 15 11.1 15.8 9.7 17.2C8.3 18.6 7.5 20.5 7.5 22.5V82.5C7.5 84.5 8.3 86.4 9.7 87.8C11.1 89.2 13 90 15 90H45V105H30V112.5H90V105H75V90H105C107 90 108.9 89.2 110.3 87.8C111.7 86.4 112.5 84.5 112.5 82.5V60H105ZM67.5 105H52.5V90H67.5V105Z" fill="#343A40"/>
</svg>
