<svg width="120" height="120" viewBox="0 0 120 120" fill="none" xmlns="http://www.w3.org/2000/svg">
<path d="M33.8 15C31.8 15 29.9 15.8 28.5 17.2C27.1 18.6 26.3 20.5 26.3 22.5V37.5C28.6 37.5 31.3 37.5 33.8 37.5V22.5H67.6C67.6 20.1 67.6 17.3 67.6 15H33.8Z" fill="#343A40"/>
<path d="M110.3 9.7C108.9 8.3 107 7.5 105 7.5H75C73 7.5 71.1 8.3 69.7 9.7C68.3 11.1 67.5 13 67.5 15V22.5V45C67.5 47 68.3 48.9 69.7 50.3C71.1 51.7 73 52.5 75 52.5H105C107 52.5 108.9 51.7 110.3 50.3C111.7 48.9 112.5 47 112.5 45V15C112.5 13 111.7 11.1 110.3 9.7ZM105 45H75V30H105V45ZM105 22.5H75V15H105V22.5Z" fill="#DD9933"/>
<path d="M30 82.5H45C47 82.5 48.9 81.7 50.3 80.3C51.7 78.9 52.5 77 52.5 75V45C52.5 43 51.7 41.1 50.3 39.7C48.9 38.3 47 37.5 45 37.5H33.8H26.3H15C13 37.5 11.1 38.3 9.7 39.7C8.3 41.1 7.5 43 7.5 45V75C7.5 77 8.3 78.9 9.7 80.3C11.1 81.7 13 82.5 15 82.5H22.5H30ZM15 45H45V52.5H15V45ZM15 75V60H45V75H15Z" fill="#DD9933"/>
<path d="M30 97.5V82.5C27.5 82.5 24.8 82.5 22.5 82.5V97.5C22.5 99.5 23.3 101.4 24.7 102.8C26.1 104.2 28 105 30 105H67.5C67.5 102.5 67.5 100 67.5 97.5H30Z" fill="#343A40"/>
<path d="M110.3 69.7C108.9 68.3 107 67.5 105 67.5H75C73 67.5 71.1 68.3 69.7 69.7C68.3 71.1 67.5 73 67.5 75V97.5V105C67.5 107 68.3 108.9 69.7 110.3C71.1 111.7 73 112.5 75 112.5H105C107 112.5 108.9 111.7 110.3 110.3C111.7 108.9 112.5 107 112.5 105V75C112.5 73 111.7 71.1 110.3 69.7ZM105 105H75V90H105V105ZM105 82.5H75V75H105V82.5Z" fill="#DD9933"/>
</svg>
