<svg width="120" height="120" viewBox="0 0 120 120" fill="none" xmlns="http://www.w3.org/2000/svg">
<path d="M90 48.8H82.5C82.5 45.8 81.3 43 79.2 40.8C77.1 38.7 74.2 37.5 71.2 37.5V30C76.2 30 80.9 32 84.5 35.5C88 39 90 43.8 90 48.8Z" fill="#DD9933"/>
<path d="M105 48.8H97.5C97.5 41.8 94.7 35.2 89.8 30.2C84.9 25.3 78.2 22.5 71.2 22.5V15C80.1 15 88.7 18.6 95.1 24.9C101.4 31.2 105 39.8 105 48.8Z" fill="#DD9933"/>
<path d="M107.5 73.5C106.7 72.3 105.5 71.3 104.1 70.7L90 65.1C88.6 64.5 87.1 64.4 85.7 64.6C84.3 64.9 82.9 65.6 81.9 66.6L73.8 74.7C66.6 73.4 60.1 70 55 64.9001C49.9 59.8001 46.5 53.3 45.3 46.2001L53.3 38.1C54.3 37.1 55 35.7 55.3 34.3C55.6 32.9 55.5 31.4 54.9 30L49.2 16C48.6 14.6 47.7 13.4 46.4 12.6C45.2 11.8 43.7 11.3 42.2 11.3H22.5C22.2 11.3 21.9 11.3 21.6 11.3C18.6 11.5 15.9 12.9 13.9 15.2C12 17.5 11 20.4 11.2 23.4C12.7 42.4 23.1 104.6 96.8 108.8H97.4C100.4 108.8 103.2 107.6 105.4 105.5C107.5 103.4 108.7 100.5 108.7 97.5V77.7C108.8 76.2 108.3 74.8 107.5 73.5ZM101.2 97.5V97.7C101.1 98.7 100.7 99.6001 99.9 100.3C99.2 101 98.2 101.3 97.2 101.2C31.5 97.5 20.5 45 18.7 22.8C18.7 22.7 18.7 22.6 18.7 22.5C18.7 22 18.8 21.5 19 21.1C19.2 20.6 19.5 20.2 19.8 19.9C20.1 19.6 20.6 19.3 21 19.1C21.5 18.9 21.9 18.8 22.4 18.8H42.2L47.8 32.9001L37.3 43.7001L37.5 45.5C37.5 45.8 41.9 78.5 74.6 82.5L76.4 82.7L87.1 72L101.2 77.7V97.5Z" fill="#343A40"/>
</svg>
