<svg width="120" height="120" viewBox="0 0 120 120" fill="none" xmlns="http://www.w3.org/2000/svg">
<path d="M97.1251 116.5C95.4007 116.505 93.6924 116.168 92.0993 115.508C90.5061 114.848 89.0597 113.879 87.8438 112.656L72.3638 97.1762C67.971 98.1462 63.3954 97.8808 59.1442 96.4095C54.893 94.9381 51.1323 92.3183 48.2789 88.8405C45.4255 85.3626 43.5908 81.1626 42.9783 76.7059C42.3658 72.2492 42.9994 67.7099 44.8088 63.5912L47.0138 58.5662L62.5988 74.1512C63.3125 74.8327 64.2614 75.213 65.2482 75.213C66.235 75.213 67.1839 74.8327 67.8975 74.1512C68.2463 73.8035 68.5232 73.3904 68.7121 72.9356C68.9011 72.4808 68.9986 71.9932 68.9989 71.5007C68.9993 71.0082 68.9025 70.5205 68.7142 70.0654C68.5258 69.6104 68.2496 69.1969 67.9013 68.8487L52.3163 53.26L57.3413 51.055C61.4603 49.2467 65.9996 48.6141 70.4561 49.2273C74.9126 49.8405 79.1123 51.6756 82.5899 54.5292C86.0675 57.3828 88.6871 61.1434 90.1585 65.3945C91.6299 69.6455 91.8957 74.2209 90.9263 78.6137L106.406 94.0937C108.242 95.9293 109.492 98.268 109.999 100.814C110.505 103.36 110.245 105.999 109.252 108.398C108.258 110.796 106.576 112.846 104.417 114.288C102.259 115.73 99.7211 116.5 97.1251 116.5ZM74.5126 88.7162L93.1501 107.354C94.2209 108.376 95.6445 108.947 97.1251 108.947C98.6056 108.947 100.029 108.376 101.1 107.354C101.623 106.832 102.038 106.212 102.321 105.53C102.604 104.847 102.75 104.116 102.75 103.377C102.75 102.638 102.604 101.906 102.321 101.224C102.038 100.542 101.623 99.9218 101.1 99.4L82.4663 80.7625L83.1713 78.5762C83.995 76.0445 84.2074 73.3536 83.7912 70.724C83.3749 68.0944 82.3419 65.6007 80.7765 63.4471C79.2112 61.2935 77.1581 59.5413 74.7853 58.3338C72.4125 57.1262 69.7874 56.4978 67.125 56.5C66.8101 56.5 66.4976 56.5087 66.1875 56.5262L73.2076 63.5462C75.3166 65.6559 76.5014 68.5169 76.5014 71.5C76.5014 74.4831 75.3166 77.344 73.2076 79.4537C71.0644 81.5001 68.2151 82.6419 65.2519 82.6419C62.2887 82.6419 59.4394 81.5001 57.2963 79.4537L50.2763 72.4337C50.2588 72.7462 50.2501 73.06 50.2501 73.375C50.248 76.0378 50.8765 78.6633 52.0842 81.0365C53.2919 83.4098 55.0444 85.4633 57.1983 87.029C59.3522 88.5947 61.8463 89.628 64.4764 90.0445C67.1065 90.4609 69.7978 90.2486 72.3301 89.425L74.5126 88.7162Z" fill="#DD9933"/>
<path d="M84 15.25H72.75V11.5C72.7441 9.5127 71.952 7.60849 70.5467 6.20326C69.1415 4.79802 67.2373 4.00594 65.25 4H35.25C33.2627 4.00594 31.3585 4.79802 29.9533 6.20326C28.548 7.60849 27.7559 9.5127 27.75 11.5V15.25H16.5C14.5127 15.2559 12.6085 16.048 11.2033 17.4533C9.79802 18.8585 9.00594 20.7627 9 22.75V101.5C9.00594 103.487 9.79802 105.392 11.2033 106.797C12.6085 108.202 14.5127 108.994 16.5 109H42.75V101.5H16.5V22.75H27.75V34H72.75V22.75H84V41.5H91.5V22.75C91.4941 20.7627 90.702 18.8585 89.2967 17.4533C87.8915 16.048 85.9873 15.2559 84 15.25ZM65.25 26.5H35.25V11.5H65.25V26.5Z" fill="#343A40"/>
</svg>
