<svg width="80" height="80" viewBox="0 0 80 80" fill="none" xmlns="http://www.w3.org/2000/svg">
<path d="M70 15H10C8.67392 15 7.40215 15.5268 6.46447 16.4645C5.52678 17.4021 5 18.6739 5 20V60C5 61.3261 5.52678 62.5979 6.46447 63.5355C7.40215 64.4732 8.67392 65 10 65H70C71.3261 65 72.5979 64.4732 73.5355 63.5355C74.4732 62.5979 75 61.3261 75 60V20C75 18.6739 74.4732 17.4021 73.5355 16.4645C72.5979 15.5268 71.3261 15 70 15ZM64.5 20L40 36.95L15.5 20H64.5ZM10 60V22.275L38.575 42.05C38.9935 42.3403 39.4907 42.4959 40 42.4959C40.5093 42.4959 41.0065 42.3403 41.425 42.05L70 22.275V60H10Z" fill="#DD9933"/>
</svg>
