<svg width="16" height="16" viewBox="0 0 16 16" fill="none" xmlns="http://www.w3.org/2000/svg">
<path fill-rule="evenodd" clip-rule="evenodd" d="M4.97669 0.710626C5.75869 0.674626 6.00802 0.666626 8.00002 0.666626C9.99202 0.666626 10.2414 0.675293 11.0227 0.710626C11.804 0.745959 12.3374 0.870626 12.804 1.05129C13.2927 1.23596 13.736 1.52463 14.1027 1.89796C14.476 2.26396 14.764 2.70663 14.948 3.19596C15.1294 3.66263 15.2534 4.19596 15.2894 4.97596C15.3254 5.75929 15.3334 6.00863 15.3334 7.99996C15.3334 9.99196 15.3247 10.2413 15.2894 11.0233C15.254 11.8033 15.1294 12.3366 14.948 12.8033C14.764 13.2927 14.4755 13.7361 14.1027 14.1026C13.736 14.476 13.2927 14.764 12.804 14.948C12.3374 15.1293 11.804 15.2533 11.024 15.2893C10.2414 15.3253 9.99202 15.3333 8.00002 15.3333C6.00802 15.3333 5.75869 15.3246 4.97669 15.2893C4.19669 15.254 3.66335 15.1293 3.19669 14.948C2.7073 14.7639 2.2639 14.4755 1.89735 14.1026C1.52427 13.7364 1.23556 13.2932 1.05135 12.804C0.870687 12.3373 0.746687 11.804 0.710687 11.024C0.674687 10.2406 0.666687 9.99129 0.666687 7.99996C0.666687 6.00796 0.675354 5.75863 0.710687 4.97729C0.74602 4.19596 0.870687 3.66263 1.05135 3.19596C1.23584 2.70668 1.52477 2.2635 1.89802 1.89729C2.26405 1.52429 2.707 1.23559 3.19602 1.05129C3.66269 0.870626 4.19602 0.746626 4.97602 0.710626H4.97669ZM10.9634 2.03063C10.19 1.99529 9.95802 1.98796 8.00002 1.98796C6.04202 1.98796 5.81002 1.99529 5.03669 2.03063C4.32135 2.06329 3.93335 2.18263 3.67469 2.28329C3.33269 2.41663 3.08802 2.57463 2.83135 2.83129C2.58805 3.06799 2.40081 3.35615 2.28335 3.67463C2.18269 3.93329 2.06335 4.32129 2.03069 5.03663C1.99535 5.80996 1.98802 6.04196 1.98802 7.99996C1.98802 9.95796 1.99535 10.19 2.03069 10.9633C2.06335 11.6786 2.18269 12.0666 2.28335 12.3253C2.40069 12.6433 2.58802 12.932 2.83135 13.1686C3.06802 13.412 3.35669 13.5993 3.67469 13.7166C3.93335 13.8173 4.32135 13.9366 5.03669 13.9693C5.81002 14.0046 6.04135 14.012 8.00002 14.012C9.95869 14.012 10.19 14.0046 10.9634 13.9693C11.6787 13.9366 12.0667 13.8173 12.3254 13.7166C12.6674 13.5833 12.912 13.4253 13.1687 13.1686C13.412 12.932 13.5994 12.6433 13.7167 12.3253C13.8174 12.0666 13.9367 11.6786 13.9694 10.9633C14.0047 10.19 14.012 9.95796 14.012 7.99996C14.012 6.04196 14.0047 5.80996 13.9694 5.03663C13.9367 4.32129 13.8174 3.93329 13.7167 3.67463C13.5834 3.33263 13.4254 3.08796 13.1687 2.83129C12.932 2.58801 12.6438 2.40077 12.3254 2.28329C12.0667 2.18263 11.6787 2.06329 10.9634 2.03063ZM7.06335 10.2606C7.58646 10.4784 8.16894 10.5078 8.71131 10.3438C9.25367 10.1798 9.72228 9.83257 10.0371 9.36145C10.3519 8.89034 10.4934 8.32454 10.4374 7.7607C10.3814 7.19685 10.1314 6.66994 9.73002 6.26996C9.47418 6.01428 9.16483 5.8185 8.82424 5.69672C8.48366 5.57495 8.12031 5.5302 7.76035 5.5657C7.40039 5.60121 7.05279 5.71608 6.74256 5.90205C6.43232 6.08802 6.16718 6.34046 5.96622 6.64119C5.76526 6.94193 5.63348 7.28349 5.58036 7.64127C5.52725 7.99905 5.55412 8.36415 5.65905 8.7103C5.76397 9.05645 5.94434 9.37503 6.18717 9.64311C6.42999 9.91118 6.72924 10.1221 7.06335 10.2606ZM5.33469 5.33463C5.6847 4.98461 6.10023 4.70696 6.55755 4.51753C7.01487 4.32811 7.50502 4.23061 8.00002 4.23061C8.49502 4.23061 8.98517 4.32811 9.44249 4.51753C9.89981 4.70696 10.3153 4.98461 10.6654 5.33463C11.0154 5.68464 11.293 6.10017 11.4824 6.55749C11.6719 7.01481 11.7694 7.50496 11.7694 7.99996C11.7694 8.49496 11.6719 8.98511 11.4824 9.44243C11.293 9.89975 11.0154 10.3153 10.6654 10.6653C9.95846 11.3722 8.99971 11.7693 8.00002 11.7693C7.00033 11.7693 6.04158 11.3722 5.33469 10.6653C4.6278 9.9584 4.23067 8.99965 4.23067 7.99996C4.23067 7.00027 4.6278 6.04152 5.33469 5.33463ZM12.6054 4.79196C12.6921 4.71014 12.7615 4.61175 12.8096 4.50261C12.8576 4.39347 12.8832 4.27581 12.885 4.15658C12.8867 4.03735 12.8645 3.91899 12.8197 3.8085C12.7748 3.69801 12.7083 3.59763 12.624 3.51332C12.5397 3.429 12.4393 3.36246 12.3288 3.31764C12.2183 3.27281 12.1 3.25061 11.9807 3.25235C11.8615 3.25409 11.7438 3.27973 11.6347 3.32776C11.5256 3.37579 11.4272 3.44522 11.3454 3.53196C11.1862 3.70065 11.0991 3.92471 11.1025 4.15658C11.1059 4.38845 11.1995 4.60988 11.3635 4.77385C11.5274 4.93783 11.7489 5.03145 11.9807 5.03483C12.2126 5.03821 12.4367 4.95109 12.6054 4.79196Z" fill="white"/>
</svg>
