<svg width="24" height="24" viewBox="0 0 24 24" fill="none" xmlns="http://www.w3.org/2000/svg">
<g clip-path="url(#clip0_194_588)">
<path d="M17.6933 11.9999C17.6906 11.1035 17.5945 10.2098 17.4067 9.33328H19.8067C19.6831 8.96765 19.5338 8.61121 19.36 8.26661H17.1267C16.7068 6.86398 16.0557 5.54134 15.2 4.35328C14.6533 4.12341 14.0833 3.95353 13.5 3.84661C14.6722 5.1061 15.557 6.60507 16.0933 8.23994H12.5V3.73328H11.5V8.24661H7.90667C8.44405 6.60877 9.33123 5.10741 10.5067 3.84661C9.92585 3.95174 9.35811 4.11939 8.81334 4.34661C7.95431 5.52969 7.29865 6.84778 6.87334 8.24661H4.62667C4.44972 8.5975 4.29822 8.96066 4.17334 9.33328H6.59334C6.40553 10.2098 6.30946 11.1035 6.30667 11.9999C6.30852 12.9805 6.42033 13.9577 6.64001 14.9133H4.28001C4.41793 15.287 4.5828 15.6501 4.77334 15.9999H6.92667C7.33481 17.2771 7.93988 18.4828 8.72001 19.5733C9.27865 19.8129 9.86225 19.9895 10.46 20.0999C9.37195 18.9131 8.53518 17.5185 8.00001 15.9999H11.5067V20.2266H12.5067V15.9999H16C15.463 17.5191 14.6239 18.9138 13.5333 20.0999C14.1339 19.9857 14.7198 19.8046 15.28 19.5599C16.0589 18.4735 16.6639 17.2725 17.0733 15.9999H19.2067C19.3963 15.6566 19.5612 15.3001 19.7 14.9333H17.3333C17.5635 13.9722 17.6843 12.9882 17.6933 11.9999ZM11.5 14.9133H7.67334C7.20399 13.0785 7.18341 11.1577 7.61334 9.31328H11.5V14.9133ZM16.3267 14.9133H12.5V9.33328H16.3867C16.5782 10.2091 16.6721 11.1034 16.6667 11.9999C16.6721 12.9813 16.5579 13.9596 16.3267 14.9133Z" fill="white"/>
<path d="M12 1.33337C9.89033 1.33337 7.82804 1.95896 6.07392 3.13103C4.31979 4.3031 2.95262 5.96901 2.14528 7.91808C1.33795 9.86716 1.12671 12.0119 1.53829 14.081C1.94987 16.1501 2.96577 18.0508 4.45753 19.5425C5.94929 21.0343 7.84991 22.0502 9.91904 22.4618C11.9882 22.8733 14.1329 22.6621 16.082 21.8548C18.031 21.0474 19.6969 19.6802 20.869 17.9261C22.0411 16.172 22.6667 14.1097 22.6667 12C22.6667 9.17106 21.5429 6.45796 19.5425 4.45757C17.5421 2.45718 14.829 1.33337 12 1.33337ZM12 21.3334C10.154 21.3334 8.34954 20.786 6.81468 19.7604C5.27982 18.7349 4.08354 17.2772 3.37712 15.5718C2.67071 13.8663 2.48588 11.9897 2.846 10.1792C3.20613 8.36871 4.09505 6.70567 5.40034 5.40038C6.70563 4.09509 8.36867 3.20617 10.1792 2.84604C11.9896 2.48592 13.8663 2.67075 15.5717 3.37717C17.2772 4.08358 18.7348 5.27986 19.7604 6.81472C20.7859 8.34958 21.3333 10.1541 21.3333 12C21.3333 14.4754 20.35 16.8494 18.5997 18.5997C16.8493 20.35 14.4754 21.3334 12 21.3334Z" fill="white"/>
</g>
<defs>
<clipPath id="clip0_194_588">
<rect width="24" height="24" fill="white"/>
</clipPath>
</defs>
</svg>
