<svg width="14" height="14" viewBox="0 0 14 14" fill="none" xmlns="http://www.w3.org/2000/svg">
<path fill-rule="evenodd" clip-rule="evenodd" d="M5.28598 4.97937H7.76198V6.21271C8.11865 5.50337 9.03331 4.86604 10.4073 4.86604C13.0413 4.86604 13.6666 6.27804 13.6666 8.86871V13.6667H11V9.45871C11 7.98337 10.6433 7.15137 9.73531 7.15137C8.47598 7.15137 7.95265 8.04804 7.95265 9.45804V13.6667H5.28598V4.97937ZM0.713313 13.5534H3.37998V4.86604H0.713313V13.5534ZM3.76198 2.03337C3.76208 2.25689 3.71775 2.4782 3.63157 2.68443C3.54539 2.89067 3.41908 3.07772 3.25998 3.23471C2.93758 3.55512 2.50119 3.73448 2.04665 3.73337C1.59291 3.73307 1.15752 3.55417 0.834646 3.23537C0.676121 3.07785 0.550237 2.89059 0.464209 2.68433C0.378181 2.47807 0.333699 2.25686 0.333313 2.03337C0.333313 1.58204 0.513313 1.15004 0.835313 0.831374C1.1579 0.512146 1.59347 0.333175 2.04731 0.333374C2.50198 0.333374 2.93798 0.512708 3.25998 0.831374C3.58131 1.15004 3.76198 1.58204 3.76198 2.03337Z" fill="white"/>
</svg>
