<svg width="80" height="80" viewBox="0 0 80 80" fill="none" xmlns="http://www.w3.org/2000/svg">
<path d="M40 45C37.5277 45 35.111 44.2669 33.0554 42.8934C30.9998 41.5199 29.3976 39.5676 28.4515 37.2836C27.5054 34.9995 27.2579 32.4861 27.7402 30.0614C28.2225 27.6366 29.413 25.4093 31.1612 23.6612C32.9093 21.913 35.1366 20.7225 37.5614 20.2402C39.9861 19.7579 42.4995 20.0054 44.7836 20.9515C47.0676 21.8976 49.0199 23.4998 50.3934 25.5554C51.7669 27.611 52.5 30.0277 52.5 32.5C52.496 35.814 51.1778 38.9911 48.8345 41.3345C46.4911 43.6778 43.314 44.996 40 45ZM40 25C38.5166 25 37.0666 25.4399 35.8332 26.264C34.5999 27.0881 33.6386 28.2594 33.0709 29.6299C32.5033 31.0003 32.3547 32.5083 32.6441 33.9632C32.9335 35.418 33.6478 36.7544 34.6967 37.8033C35.7456 38.8522 37.082 39.5665 38.5368 39.8559C39.9917 40.1453 41.4997 39.9968 42.8701 39.4291C44.2406 38.8614 45.4119 37.9002 46.236 36.6668C47.0601 35.4334 47.5 33.9834 47.5 32.5C47.498 30.5115 46.7072 28.605 45.3011 27.1989C43.895 25.7928 41.9885 25.002 40 25Z" fill="#DD9933"/>
<path d="M40 75L18.91 50.1275C18.617 49.754 18.327 49.3782 18.04 49C14.4375 44.2545 12.4913 38.4581 12.5 32.5C12.5 25.2065 15.3973 18.2118 20.5546 13.0546C25.7118 7.89731 32.7066 5 40 5C47.2935 5 54.2882 7.89731 59.4455 13.0546C64.6027 18.2118 67.5 25.2065 67.5 32.5C67.5088 38.4554 65.5635 44.2491 61.9625 48.9925L61.96 49C61.96 49 61.21 49.985 61.0975 50.1175L40 75ZM22.03 45.9875C22.035 45.9875 22.615 46.7575 22.7475 46.9225L40 67.27L57.275 46.895C57.385 46.7575 57.97 45.9825 57.9725 45.98C60.9154 42.1028 62.5058 37.3676 62.5 32.5C62.5 26.5326 60.1295 20.8097 55.9099 16.5901C51.6904 12.3705 45.9674 10 40 10C34.0327 10 28.3097 12.3705 24.0901 16.5901C19.8706 20.8097 17.5 26.5326 17.5 32.5C17.4948 37.3706 19.087 42.1085 22.0325 45.9875H22.03Z" fill="#DD9933"/>
</svg>
