<svg width="64" height="64" viewBox="0 0 64 64" fill="none" xmlns="http://www.w3.org/2000/svg">
<path d="M34.25 34.25H45.8195C46.3672 36.371 47.6695 38.2194 49.4825 39.4489C51.2955 40.6783 53.4947 41.2043 55.6678 40.9283C57.8409 40.6523 59.8387 39.5932 61.2867 37.9495C62.7348 36.3059 63.5337 34.1906 63.5337 32C63.5337 29.8095 62.7348 27.6941 61.2867 26.0505C59.8387 24.4069 57.8409 23.3478 55.6678 23.0718C53.4947 22.7957 51.2955 23.3217 49.4825 24.5512C47.6695 25.7806 46.3672 27.629 45.8195 29.75H34.25V11.75H45.8195C46.3672 13.871 47.6695 15.7194 49.4825 16.9489C51.2955 18.1783 53.4947 18.7043 55.6678 18.4283C57.8409 18.1523 59.8387 17.0932 61.2867 15.4495C62.7348 13.8059 63.5337 11.6906 63.5337 9.50002C63.5337 7.30948 62.7348 5.19414 61.2867 3.5505C59.8387 1.90686 57.8409 0.847772 55.6678 0.571755C53.4947 0.295737 51.2955 0.82174 49.4825 2.05117C47.6695 3.2806 46.3672 5.12904 45.8195 7.25002H34.25C33.0569 7.25121 31.913 7.7257 31.0694 8.56936C30.2257 9.41301 29.7512 10.5569 29.75 11.75V29.75H18.1805C17.6329 27.629 16.3305 25.7806 14.5175 24.5512C12.7045 23.3217 10.5054 22.7957 8.33227 23.0718C6.15919 23.3478 4.16137 24.4069 2.7133 26.0505C1.26522 27.6941 0.466309 29.8095 0.466309 32C0.466309 34.1906 1.26522 36.3059 2.7133 37.9495C4.16137 39.5932 6.15919 40.6523 8.33227 40.9283C10.5054 41.2043 12.7045 40.6783 14.5175 39.4489C16.3305 38.2194 17.6329 36.371 18.1805 34.25H29.75V52.25C29.7512 53.4431 30.2257 54.587 31.0694 55.4307C31.913 56.2743 33.0569 56.7488 34.25 56.75H45.8195C46.3672 58.871 47.6695 60.7194 49.4825 61.9489C51.2955 63.1783 53.4947 63.7043 55.6678 63.4283C57.8409 63.1523 59.8387 62.0932 61.2867 60.4495C62.7348 58.8059 63.5337 56.6906 63.5337 54.5C63.5337 52.3095 62.7348 50.1941 61.2867 48.5505C59.8387 46.9069 57.8409 45.8478 55.6678 45.5718C53.4947 45.2957 51.2955 45.8217 49.4825 47.0512C47.6695 48.2806 46.3672 50.129 45.8195 52.25H34.25V34.25ZM54.5 27.5C55.39 27.5 56.2601 27.7639 57.0001 28.2584C57.7401 28.7529 58.3169 29.4557 58.6575 30.2779C58.9981 31.1002 59.0872 32.005 58.9136 32.8779C58.7399 33.7508 58.3113 34.5527 57.682 35.182C57.0527 35.8113 56.2508 36.2399 55.3779 36.4136C54.505 36.5872 53.6002 36.4981 52.7779 36.1575C51.9557 35.8169 51.2529 35.2401 50.7584 34.5001C50.2639 33.7601 50 32.89 50 32C50.0012 30.8069 50.4757 29.663 51.3194 28.8194C52.163 27.9757 53.3069 27.5012 54.5 27.5ZM54.5 5.00002C55.39 5.00002 56.2601 5.26394 57.0001 5.75841C57.7401 6.25287 58.3169 6.95568 58.6575 7.77795C58.9981 8.60021 59.0872 9.50501 58.9136 10.3779C58.7399 11.2508 58.3113 12.0527 57.682 12.682C57.0527 13.3113 56.2508 13.7399 55.3779 13.9136C54.505 14.0872 53.6002 13.9981 52.7779 13.6575C51.9557 13.3169 51.2529 12.7401 50.7584 12.0001C50.2639 11.2601 50 10.39 50 9.50002C50.0012 8.30691 50.4757 7.16301 51.3194 6.31936C52.163 5.4757 53.3069 5.00121 54.5 5.00002ZM9.50002 36.5C8.61 36.5 7.73998 36.2361 6.99996 35.7416C6.25993 35.2472 5.68316 34.5444 5.34256 33.7221C5.00197 32.8998 4.91285 31.995 5.08649 31.1221C5.26012 30.2492 5.6887 29.4474 6.31804 28.818C6.94738 28.1887 7.7492 27.7601 8.62211 27.5865C9.49503 27.4129 10.3998 27.502 11.2221 27.8426C12.0444 28.1832 12.7472 28.7599 13.2416 29.5C13.7361 30.24 14 31.11 14 32C13.9988 33.1931 13.5243 34.337 12.6807 35.1807C11.837 36.0243 10.6931 36.4988 9.50002 36.5ZM54.5 50C55.39 50 56.2601 50.2639 57.0001 50.7584C57.7401 51.2529 58.3169 51.9557 58.6575 52.7779C58.9981 53.6002 59.0872 54.505 58.9136 55.3779C58.7399 56.2508 58.3113 57.0527 57.682 57.682C57.0527 58.3113 56.2508 58.7399 55.3779 58.9136C54.505 59.0872 53.6002 58.9981 52.7779 58.6575C51.9557 58.3169 51.2529 57.7401 50.7584 57.0001C50.2639 56.2601 50 55.39 50 54.5C50.0012 53.3069 50.4757 52.163 51.3194 51.3194C52.163 50.4757 53.3069 50.0012 54.5 50Z" fill="white"/>
</svg>
