<svg width="83" height="48" viewBox="0 0 83 48" fill="none" xmlns="http://www.w3.org/2000/svg">
<line x1="40" y1="22" x2="2.62268e-07" y2="22" stroke="#DD9933" stroke-width="6" stroke-dasharray="4 4"/>
<circle cx="59" cy="24" r="24" fill="#DD9933"/>
<circle cx="59" cy="24" r="19" fill="white"/>
<path d="M56.3008 24.1484L53.8281 23.5508L54.7773 14.9375H64.1641V17.5039H57.3438L56.8984 21.4883C57.1406 21.3398 57.4922 21.1914 57.9531 21.043C58.4219 20.8867 58.9492 20.8086 59.5352 20.8086C60.3477 20.8086 61.0742 20.9414 61.7148 21.207C62.3555 21.4648 62.8984 21.8398 63.3438 22.332C63.7969 22.8242 64.1367 23.4258 64.3633 24.1367C64.5977 24.8398 64.7148 25.6367 64.7148 26.5273C64.7148 27.3086 64.5977 28.043 64.3633 28.7305C64.1367 29.4102 63.7891 30.0156 63.3203 30.5469C62.8516 31.0703 62.2617 31.4844 61.5508 31.7891C60.8398 32.0859 60.0039 32.2344 59.043 32.2344C58.3164 32.2344 57.6172 32.1289 56.9453 31.918C56.2812 31.6992 55.6836 31.3828 55.1523 30.9688C54.6211 30.5469 54.1953 30.0312 53.875 29.4219C53.5625 28.8125 53.3906 28.1133 53.3594 27.3242H56.418C56.4727 27.8477 56.6133 28.293 56.8398 28.6602C57.0664 29.0273 57.3633 29.3086 57.7305 29.5039C58.1055 29.6992 58.5391 29.7969 59.0312 29.7969C59.4766 29.7969 59.8594 29.7148 60.1797 29.5508C60.5078 29.3789 60.7773 29.1406 60.9883 28.8359C61.1992 28.5312 61.3555 28.1719 61.457 27.7578C61.5586 27.3438 61.6094 26.8906 61.6094 26.3984C61.6094 25.9219 61.5508 25.4883 61.4336 25.0977C61.3164 24.6992 61.1367 24.3555 60.8945 24.0664C60.6523 23.7773 60.3477 23.5547 59.9805 23.3984C59.6211 23.2422 59.1992 23.1641 58.7148 23.1641C58.0664 23.1641 57.5664 23.2617 57.2148 23.457C56.8711 23.6523 56.5664 23.8828 56.3008 24.1484Z" fill="#343A40"/>
</svg>
