<svg width="71" height="48" viewBox="0 0 71 48" fill="none" xmlns="http://www.w3.org/2000/svg">
<line x1="71" y1="24" x2="31" y2="24" stroke="#DD9933" stroke-width="6" stroke-dasharray="4 4"/>
<circle cx="24" cy="24" r="24" fill="#DD9933"/>
<circle cx="24" cy="24" r="19" fill="white"/>
<path d="M21.6172 22.0977H23.3633C23.9805 22.0977 24.4883 21.9922 24.8867 21.7812C25.293 21.5625 25.5938 21.2656 25.7891 20.8906C25.9922 20.5078 26.0938 20.0664 26.0938 19.5664C26.0938 19.0742 26.0039 18.6484 25.8242 18.2891C25.6445 17.9219 25.3711 17.6406 25.0039 17.4453C24.6445 17.2422 24.1836 17.1406 23.6211 17.1406C23.168 17.1406 22.75 17.2305 22.3672 17.4102C21.9922 17.5898 21.6914 17.8477 21.4648 18.1836C21.2461 18.5117 21.1367 18.9062 21.1367 19.3672H18.0312C18.0312 18.4453 18.2734 17.6367 18.7578 16.9414C19.25 16.2383 19.9141 15.6875 20.75 15.2891C21.5859 14.8906 22.5195 14.6914 23.5508 14.6914C24.6758 14.6914 25.6602 14.8789 26.5039 15.2539C27.3555 15.6211 28.0156 16.1641 28.4844 16.8828C28.9609 17.6016 29.1992 18.4922 29.1992 19.5547C29.1992 20.0625 29.0781 20.5703 28.8359 21.0781C28.6016 21.5781 28.2539 22.0312 27.793 22.4375C27.3398 22.8359 26.7812 23.1602 26.1172 23.4102C25.4609 23.6523 24.707 23.7734 23.8555 23.7734H21.6172V22.0977ZM21.6172 24.4883V22.8359H23.8555C24.8164 22.8359 25.6484 22.9492 26.3516 23.1758C27.0625 23.3945 27.6484 23.707 28.1094 24.1133C28.5703 24.5117 28.9102 24.9766 29.1289 25.5078C29.3555 26.0391 29.4688 26.6094 29.4688 27.2188C29.4688 28.0156 29.3203 28.7266 29.0234 29.3516C28.7266 29.9688 28.3086 30.4922 27.7695 30.9219C27.2383 31.3516 26.6133 31.6797 25.8945 31.9062C25.1758 32.125 24.3984 32.2344 23.5625 32.2344C22.8359 32.2344 22.1289 32.1367 21.4414 31.9414C20.7617 31.7383 20.1484 31.4375 19.6016 31.0391C19.0547 30.6328 18.6211 30.125 18.3008 29.5156C17.9805 28.8984 17.8203 28.1836 17.8203 27.3711H20.9258C20.9258 27.8398 21.0391 28.2578 21.2656 28.625C21.5 28.9922 21.8203 29.2812 22.2266 29.4922C22.6406 29.6953 23.1055 29.7969 23.6211 29.7969C24.1914 29.7969 24.6797 29.6953 25.0859 29.4922C25.5 29.2812 25.8164 28.9844 26.0352 28.6016C26.2539 28.2109 26.3633 27.7461 26.3633 27.207C26.3633 26.5664 26.2422 26.0469 26 25.6484C25.7578 25.25 25.4102 24.957 24.957 24.7695C24.5117 24.582 23.9805 24.4883 23.3633 24.4883H21.6172Z" fill="#343A40"/>
</svg>
