<svg width="83" height="48" viewBox="0 0 83 48" fill="none" xmlns="http://www.w3.org/2000/svg">
<line x1="40" y1="22" x2="2.62268e-07" y2="22" stroke="#DD9933" stroke-width="6" stroke-dasharray="4 4"/>
<circle cx="59" cy="24" r="24" fill="#DD9933"/>
<circle cx="59" cy="24" r="19" fill="white"/>
<path d="M61.8438 14.7969H62.2656V17.293H62.0664C61.1211 17.293 60.2891 17.4375 59.5703 17.7266C58.8594 18.0156 58.2656 18.4219 57.7891 18.9453C57.3203 19.4609 56.9648 20.0742 56.7227 20.7852C56.4805 21.4883 56.3594 22.2578 56.3594 23.0938V25.8594C56.3594 26.5078 56.4258 27.0781 56.5586 27.5703C56.6992 28.0547 56.8906 28.4648 57.1328 28.8008C57.3828 29.1289 57.6719 29.375 58 29.5391C58.3359 29.7031 58.7031 29.7852 59.1016 29.7852C59.5 29.7852 59.8594 29.7031 60.1797 29.5391C60.5 29.375 60.7734 29.1445 61 28.8477C61.2344 28.543 61.4102 28.1875 61.5273 27.7812C61.6523 27.375 61.7148 26.9297 61.7148 26.4453C61.7148 25.9688 61.6562 25.5273 61.5391 25.1211C61.4219 24.7148 61.25 24.3594 61.0234 24.0547C60.7969 23.7422 60.5156 23.5039 60.1797 23.3398C59.8516 23.168 59.4766 23.082 59.0547 23.082C58.5078 23.082 58.0195 23.2109 57.5898 23.4688C57.1602 23.7188 56.8203 24.0469 56.5703 24.4531C56.3203 24.8594 56.1836 25.2891 56.1602 25.7422L55.1172 25.2266C55.1562 24.5625 55.2969 23.9531 55.5391 23.3984C55.7891 22.8438 56.1211 22.3594 56.5352 21.9453C56.957 21.5312 57.4531 21.2109 58.0234 20.9844C58.6016 20.7578 59.2422 20.6445 59.9453 20.6445C60.7578 20.6445 61.4688 20.8008 62.0781 21.1133C62.6875 21.418 63.1914 21.8359 63.5898 22.3672C63.9961 22.8984 64.3008 23.5117 64.5039 24.207C64.707 24.8945 64.8086 25.6211 64.8086 26.3867C64.8086 27.207 64.6758 27.9727 64.4102 28.6836C64.1523 29.3945 63.7773 30.0156 63.2852 30.5469C62.793 31.0781 62.1992 31.4922 61.5039 31.7891C60.8086 32.0859 60.0273 32.2344 59.1602 32.2344C58.2461 32.2344 57.4258 32.0625 56.6992 31.7188C55.9805 31.375 55.3633 30.8984 54.8477 30.2891C54.332 29.6797 53.9375 28.9688 53.6641 28.1562C53.3906 27.3438 53.2539 26.4648 53.2539 25.5195V24.2773C53.2539 22.9414 53.4375 21.6992 53.8047 20.5508C54.1719 19.4023 54.7148 18.3984 55.4336 17.5391C56.1602 16.6719 57.0586 16 58.1289 15.5234C59.1992 15.0391 60.4375 14.7969 61.8438 14.7969Z" fill="#343A40"/>
</svg>
