<svg width="71" height="48" viewBox="0 0 71 48" fill="none" xmlns="http://www.w3.org/2000/svg">
<line x1="71" y1="24" x2="31" y2="24" stroke="#DD9933" stroke-width="6" stroke-dasharray="4 4"/>
<circle cx="24" cy="24" r="24" fill="#DD9933"/>
<circle cx="24" cy="24" r="19" fill="white"/>
<path d="M29.7852 29.5625V32H18.2305V29.9141L23.7734 23.9258C24.3516 23.2695 24.8086 22.6992 25.1445 22.2148C25.4805 21.7305 25.7188 21.293 25.8594 20.9023C26.0078 20.5039 26.082 20.125 26.082 19.7656C26.082 19.2422 25.9883 18.7852 25.8008 18.3945C25.6133 17.9961 25.3398 17.6875 24.9805 17.4688C24.6289 17.25 24.1953 17.1406 23.6797 17.1406C23.1094 17.1406 22.6211 17.2734 22.2148 17.5391C21.8164 17.7969 21.5117 18.1562 21.3008 18.6172C21.0977 19.0781 20.9961 19.6055 20.9961 20.1992H17.8906C17.8906 19.1914 18.125 18.2734 18.5938 17.4453C19.0625 16.6094 19.7344 15.9414 20.6094 15.4414C21.4844 14.9414 22.5234 14.6914 23.7266 14.6914C24.8984 14.6914 25.8906 14.8867 26.7031 15.2773C27.5156 15.6602 28.1328 16.207 28.5547 16.918C28.9766 17.6289 29.1875 18.4766 29.1875 19.4609C29.1875 20.0078 29.0977 20.5469 28.918 21.0781C28.7383 21.6094 28.4844 22.1367 28.1562 22.6602C27.8359 23.1758 27.4531 23.6992 27.0078 24.2305C26.5625 24.7617 26.0664 25.3047 25.5195 25.8594L22.1914 29.5625H29.7852Z" fill="#343A40"/>
</svg>
