<svg width="555" height="404" viewBox="0 0 555 404" fill="none" xmlns="http://www.w3.org/2000/svg">
<g clip-path="url(#clip0_347_1287)">
<path d="M266.955 231.881C255.462 231.881 244.256 235.461 234.911 242.118C225.566 248.775 218.55 258.175 214.848 269C213.145 273.985 206.027 274.028 204.205 269.085C194.983 244.041 189.943 199.276 255.476 196.564C285.841 195.308 284.657 231.881 266.955 231.881Z" fill="#BD7E20"/>
<path d="M280.71 231.881C292.203 231.881 303.409 235.461 312.754 242.118C322.098 248.775 329.114 258.175 332.816 269C334.519 273.985 341.637 274.028 343.459 269.085C352.68 244.041 357.721 199.276 292.188 196.564C261.824 195.308 263.009 231.881 280.71 231.881Z" fill="#BD7E20"/>
<path d="M306.219 371.109L238.362 364.169L253.428 113.604H290.844L306.219 371.109Z" fill="#A8ABAE"/>
<path d="M443.767 375.855C442.064 375.857 440.363 375.999 438.683 376.28C436.124 367.039 431.542 358.475 425.265 351.202C418.989 343.929 411.174 338.126 402.38 334.21C393.585 330.293 384.029 328.359 374.396 328.547C364.762 328.735 355.29 331.039 346.656 335.295C344.255 328.1 339.748 321.782 333.712 317.153C327.677 312.524 320.388 309.794 312.782 309.316C305.176 308.837 297.6 310.63 291.026 314.465C284.452 318.301 279.18 324.003 275.887 330.84C274.137 323.614 269.993 317.185 264.121 312.588C258.249 307.992 250.993 305.497 243.522 305.506C242.706 305.506 241.901 305.533 241.101 305.592C234.21 306.094 227.645 308.715 222.318 313.094C216.99 317.472 213.164 323.39 211.367 330.029C204.346 327.47 196.829 326.542 189.391 327.315C181.954 328.088 174.792 330.542 168.454 334.489C162.115 338.436 156.767 343.771 152.817 350.088C148.868 356.405 146.421 363.536 145.665 370.937C140.444 371.337 135.423 373.112 131.119 376.081C126.816 379.049 123.384 383.104 121.177 387.829C117.533 386.222 113.599 385.368 109.614 385.316C105.628 385.264 101.673 386.017 97.9885 387.529C94.3036 389.04 90.9649 391.279 88.1741 394.11C85.3833 396.941 83.1984 400.305 81.7512 404H474.128C473.587 396.357 470.153 389.203 464.519 383.98C458.884 378.756 451.468 375.853 443.767 375.855Z" fill="#A8ABAE"/>
<path d="M302.094 242.769H241.237V262.778H302.094V242.769Z" fill="#343A40"/>
<path d="M322.265 143.853C322.265 177.958 312.724 225.408 305.815 250.065H238.455C231.546 225.408 222.005 177.958 222.005 143.853C222.005 64.4053 272.138 0 272.138 0C272.138 0 322.265 64.4053 322.265 143.853Z" fill="#EBC285"/>
<path d="M272.135 147.831C287.707 147.831 300.331 135.272 300.331 119.78C300.331 104.288 287.707 91.7296 272.135 91.7296C256.562 91.7296 243.938 104.288 243.938 119.78C243.938 135.272 256.562 147.831 272.135 147.831Z" fill="#343A40"/>
<path d="M272.135 140.489C283.631 140.489 292.951 131.217 292.951 119.78C292.951 108.343 283.631 99.0714 272.135 99.0714C260.638 99.0714 251.318 108.343 251.318 119.78C251.318 131.217 260.638 140.489 272.135 140.489Z" fill="white"/>
<path d="M306.442 63.5185H237.828C252.522 25.2 272.137 0 272.137 0C272.137 0 291.753 25.2 306.442 63.5185Z" fill="#BD7E20"/>
</g>
<defs>
<clipPath id="clip0_347_1287">
<rect width="554.51" height="404" fill="white"/>
</clipPath>
</defs>
</svg>
