<svg width="555" height="404" viewBox="0 0 555 404" fill="none" xmlns="http://www.w3.org/2000/svg">
<path d="M456.488 365.55C451.036 363.987 446.933 359.112 445.303 353.683C443.673 348.254 444.247 342.363 445.84 336.923C447.139 332.483 449.105 328.192 449.594 323.592C451.21 308.275 436.345 292.624 443.34 278.9C445.602 274.463 449.979 270.994 450.761 266.074C451.406 262.007 449.401 258.053 448.404 254.056C447.033 248.556 447.728 242.315 451.298 237.91C454.869 233.505 461.616 231.581 466.537 234.401C472.972 238.09 473.53 247.199 471.876 254.427C470.222 261.654 467.159 269.09 469.178 276.224C471.104 283.024 477.372 288.144 478.495 295.121C479.43 300.923 476.597 306.577 475.352 312.318C473.393 321.342 475.387 330.697 475.473 339.929C475.558 349.162 472.948 359.519 456.488 365.55Z" fill="#BD7E20"/>
<path d="M448.076 366.427C444.832 365.397 441.92 363.522 439.641 360.995C437.362 358.468 435.797 355.38 435.106 352.049C434.039 346.554 435.349 340.383 432.341 335.664C428.265 329.269 424.081 328.549 419.009 322.91C411.205 314.242 410.931 310.403 411.446 294.349C411.663 287.56 402.285 279.898 405.588 273.375C408.498 267.628 417.344 267.599 422.36 271.643C427.377 275.686 429.58 282.169 431.766 288.228C433.952 294.288 436.708 300.696 442.248 303.989C445.571 305.961 449.922 306.873 451.755 310.272C453.229 313.004 452.486 316.338 451.893 319.384C450.403 327.043 450.776 336.385 457.207 340.809C460.11 342.805 463.908 343.493 466.293 346.082C468.651 348.643 469.032 352.437 468.872 355.914C468.558 362.598 466.715 369.122 463.485 374.984" fill="#EBC285"/>
<path d="M455.83 371.761C452.994 368.383 451.285 364.205 450.941 359.81C450.598 355.414 451.637 351.021 453.914 347.245C457.85 341.011 465.187 336.717 466.728 329.507C468.1 323.086 464.294 316.452 465.434 309.984C466.672 302.952 473.172 298.338 478.335 293.403C479.678 292.204 480.833 290.81 481.763 289.268C484.033 285.184 483.401 280.173 484.171 275.564C485.647 266.737 492.924 258.908 501.757 257.45C509.505 256.17 515.054 260.618 515.054 268.81C515.054 278.516 507.78 282.675 504.069 287.069C498.739 293.429 495.911 301.513 496.112 309.808C496.374 319.073 500.321 328.937 496.104 337.193C493.009 343.251 486.4 346.48 481.206 350.877C477.282 354.237 474.087 358.366 471.819 363.007C469.551 367.648 468.257 372.704 468.018 377.864" fill="white"/>
<path d="M480.817 356.544H434.098V403.239H480.817V356.544Z" fill="#DD9933"/>
<g opacity="0.42">
<path d="M480.817 365.649H434.098V374.763H480.817V365.649Z" fill="#343A40"/>
</g>
<path d="M252.316 326.469C342.513 326.469 415.632 253.387 415.632 163.235C415.632 73.0826 342.513 0 252.316 0C162.119 0 89 73.0826 89 163.235C89 253.387 162.119 326.469 252.316 326.469Z" fill="#EBC285"/>
<path d="M252.316 294.182C324.672 294.182 383.329 235.555 383.329 163.235C383.329 90.9144 324.672 32.2873 252.316 32.2873C179.96 32.2873 121.303 90.9144 121.303 163.235C121.303 235.555 179.96 294.182 252.316 294.182Z" fill="white"/>
<path d="M252.316 261.24C306.47 261.24 350.37 217.361 350.37 163.235C350.37 109.108 306.47 65.2297 252.316 65.2297C198.162 65.2297 154.262 109.108 154.262 163.235C154.262 217.361 198.162 261.24 252.316 261.24Z" fill="#EBC285"/>
<path d="M252.316 228.397C288.322 228.397 317.511 199.223 317.511 163.235C317.511 127.246 288.322 98.0723 252.316 98.0723C216.31 98.0723 187.121 127.246 187.121 163.235C187.121 199.223 216.31 228.397 252.316 228.397Z" fill="white"/>
<path d="M252.316 196.57C270.736 196.57 285.668 181.645 285.668 163.235C285.668 144.824 270.736 129.899 252.316 129.899C233.896 129.899 218.964 144.824 218.964 163.235C218.964 181.645 233.896 196.57 252.316 196.57Z" fill="#EBC285"/>
<path d="M366.863 280.358L365.247 294.182L346.828 275.772L348.444 261.949L366.863 280.358Z" fill="#343A40"/>
<path d="M380.376 279.06L366.545 280.675L348.126 262.266L361.957 260.651L380.376 279.06Z" fill="#343A40"/>
<path d="M255.604 171.292C256.217 170.68 257.048 170.336 257.915 170.336C258.782 170.336 259.613 170.68 260.226 171.292L368.104 279.117L363.483 283.736L255.605 175.912C254.992 175.3 254.648 174.469 254.648 173.603C254.648 172.736 254.992 171.906 255.605 171.293L255.604 171.292Z" fill="#343A40"/>
<path d="M415.026 179.349L421.887 191.461L396.147 187.47L389.286 175.358L415.026 179.349Z" fill="#343A40"/>
<path d="M425.167 170.329L414.956 179.794L389.217 175.802L399.427 166.337L425.167 170.329Z" fill="#343A40"/>
<path d="M260.804 156.964C260.937 156.108 261.405 155.339 262.104 154.828C262.804 154.317 263.678 154.104 264.535 154.237L415.293 177.615L414.291 184.07L263.533 160.692C262.676 160.559 261.908 160.092 261.396 159.393C260.884 158.693 260.671 157.82 260.804 156.964Z" fill="#343A40"/>
</svg>
