<svg xmlns="http://www.w3.org/2000/svg" aria-label="Hewlett Packard Enterprise" class="gn-icon gn-logo-desktop" data-path="/content/dam/hpe/shared-publishing/homepage-v3/globalNav/vertical-logo-with-padding.svg" focusable="false" viewBox="0 0 270 54"> <title>Hewlett Packard Enterprise</title> <path d="M3.1 33.7H.4V21.1h2.7v5H8v-5h2.7v12.6H8v-5.2H3.1v5.2zm13.8.2c-2.8 0-4.6-1.8-4.6-4.6s1.8-4.7 4.3-4.7c2.7 0 4 1.8 4 4.5v1h-5.7c.3 1.4 1.4 1.8 2.5 1.8.9 0 1.6-.2 2.5-.7h.1v2.1c-.8.3-1.8.6-3.1.6zm-2-5.8h3.2c-.1-.9-.4-1.6-1.5-1.6-.8.1-1.5.4-1.7 1.6zm12.7.3l-1.4 5.3h-2.4l-2.7-8.9v-.1h2.6l1.5 5.3 1.4-5.3h2.1l1.4 5.3 1.5-5.3h2.5v.1l-2.7 8.9H29l-1.4-5.3zm11 5.5c-2.2 0-3-.9-3-2.9v-9.9h2.6v9.7c0 .6.2.8.8.8.2 0 .4-.1.6-.1v2.2c-.2.1-.6.2-1 .2zm6.4 0c-2.8 0-4.6-1.8-4.6-4.6s1.8-4.7 4.3-4.7c2.7 0 4 1.8 4 4.5v1H43c.3 1.4 1.4 1.8 2.5 1.8.9 0 1.6-.2 2.5-.7v2.1c-.8.3-1.8.6-3 .6zm-2.1-5.8h3.2c-.1-.9-.4-1.6-1.5-1.6-.8.1-1.5.4-1.7 1.6zm16.5-3.4h2v2.1h-2v3.6c0 .8.3 1.1 1.1 1.1.2 0 .5 0 .8-.1h.1v2.1c-.3.1-.9.3-1.6.3-2.1 0-3-1-3-3.3v-3.8h-3.4v3.6c0 .8.3 1.1 1.1 1.1.2 0 .5 0 .8-.1h.1v2.1c-.3.1-.9.3-1.6.3-2.1 0-3-1-3-3.3v-3.8h-1.4v-2.1h1.4V22h2.6v2.5h3.4V22h2.6v2.7zm15.7.6c0 2.7-1.8 4.2-4.6 4.2h-1.9v4.1h-2.7V21.1h4.7c2.7 0 4.5 1.5 4.5 4.2zm-4.8 2c1.4 0 2-.8 2-1.9 0-1.2-.7-2-2-2h-1.7v3.9h1.7zM81 32.8c-.6.7-1.4 1-2.4 1-1.7 0-3.2-1.1-3.2-3 0-1.8 1.4-2.9 3.5-2.9.6 0 1.3.1 2 .3V28c0-1-.5-1.4-2-1.4-.9 0-1.8.3-2.5.7h-.1v-2.1c.7-.4 1.9-.7 3.1-.7 2.7 0 4.1 1.3 4.1 3.5v5.6H81v-.8zm-.1-2V30c-.4-.2-.9-.3-1.5-.3-.9 0-1.4.3-1.4 1s.5 1.1 1.3 1.1c.8.1 1.4-.3 1.6-1zm4-1.6c0-2.9 2-4.7 4.7-4.7.9 0 1.8.2 2.5.7v2.3H92c-.6-.4-1.3-.7-2-.7-1.3 0-2.3.9-2.3 2.4s1 2.4 2.3 2.4c.8 0 1.5-.3 2-.7v2.3c-.7.5-1.5.7-2.5.7-2.6 0-4.6-1.8-4.6-4.7zm11.4.4v4.1h-2.6V21.1h2.6v7.2l2.7-3.5h3v.1L98.8 29l3.2 4.7v.1h-3l-2.7-4.2zm11.7 3.2c-.6.7-1.4 1-2.4 1-1.7 0-3.2-1.1-3.2-3 0-1.8 1.4-2.9 3.5-2.9.6 0 1.3.1 2 .3V28c0-1-.5-1.4-2-1.4-.9 0-1.8.3-2.5.7h-.1v-2.1c.7-.4 1.9-.7 3.1-.7 2.7 0 4.1 1.3 4.1 3.5v5.6H108v-.8zm-.1-2V30c-.4-.2-.9-.3-1.5-.3-.9 0-1.4.3-1.4 1s.5 1.1 1.3 1.1c.8.1 1.4-.3 1.6-1zm7.1-4.7c.5-1 1.2-1.6 2.2-1.6.4 0 .7.1.9.2v2.5h-.1c-.3-.1-.7-.2-1.2-.2-.8 0-1.5.5-1.7 1.4v5.2h-2.6v-9h2.6v1.5h-.1zm10.1 6.6c-.6.7-1.4 1.1-2.6 1.1-2.3 0-3.7-2.1-3.7-4.7s1.5-4.7 3.7-4.7c1.2 0 2 .4 2.6 1v-4.5h2.6v12.6h-2.6v-.8zm-.1-2.1v-2.9c-.4-.6-1-.9-1.7-.9-1.2 0-1.9.8-1.9 2.4 0 1.5.8 2.4 1.9 2.4.7 0 1.3-.3 1.7-1zM.4 37.8h7.7v1.5h-6v3.9h5.4v1.5H2.2v4.2h6v1.5H.4V37.8zm14.1 3.5c2 0 3.1 1.3 3.1 3.5v5.6H16v-5.5c0-1.1-.6-2-1.8-2-1 0-1.9.7-2.2 1.6v5.9h-1.7v-8.9H12v1.3c.4-.8 1.3-1.5 2.5-1.5zm7.6.2h2.3v1.4h-2.3v4.8c0 1 .5 1.4 1.5 1.4.3 0 .5 0 .7-.1h.1v1.4c-.2.1-.6.2-1 .2-2.1 0-2.9-.9-2.9-2.7V43H19v-1.4h1.5v-2.4h1.7v2.3h-.1zm7.6 9.1c-2.6 0-4.3-1.7-4.3-4.5s1.6-4.7 4-4.7 3.7 1.8 3.7 4.4v.8h-6c.2 1.8 1.3 2.7 2.9 2.7 1 0 1.7-.2 2.5-.8h.1V50c-.8.3-1.8.6-2.9.6zm-2.6-5.5h4.4c-.1-1.3-.7-2.3-2.1-2.3-1.2 0-2 .9-2.3 2.3zm9.6-2.2c.4-.9 1.2-1.5 2.2-1.5.4 0 .7.1.9.1v1.7h-.1c-.2-.1-.6-.2-1-.2-.9 0-1.7.6-1.9 1.6v5.8h-1.7v-8.9h1.7v1.4h-.1zm8.7-1.6c2.6 0 4 2.2 4 4.6 0 2.5-1.4 4.6-4 4.6-1.1 0-2-.6-2.5-1.2v4.4h-1.7V41.5h1.7v1c.5-.6 1.4-1.2 2.5-1.2zm-.3 7.8c1.6 0 2.6-1.3 2.6-3.1s-1-3.1-2.6-3.1c-.9 0-1.7.5-2.2 1.4v3.4c.5.8 1.3 1.4 2.2 1.4zm8-6.2c.4-.9 1.2-1.5 2.2-1.5.4 0 .7.1.9.1v1.7H56c-.2-.2-.6-.2-1-.2-.9 0-1.7.6-1.9 1.6v5.8h-1.7v-8.9h1.7v1.4zm5.4-5c.6 0 1.1.5 1.1 1 0 .6-.5 1-1.1 1-.6 0-1.1-.5-1.1-1s.5-1 1.1-1zm-.8 3.6h1.7v8.9h-1.7v-8.9zm7.6 3.7c1.3.4 2.7.9 2.7 2.6 0 1.8-1.5 2.7-3.4 2.7-1.2 0-2.3-.3-3-.8v-1.6h.1c.7.7 1.8 1 2.9 1 .9 0 1.8-.4 1.8-1.1 0-.8-.7-1-2.1-1.4-1.2-.4-2.6-.9-2.6-2.5 0-1.7 1.4-2.7 3.2-2.7 1 0 2 .2 2.7.7v1.6h-.1c-.7-.6-1.6-.9-2.6-.9s-1.6.5-1.6 1.1c-.1.6.5.8 2 1.3zm8.4 5.4c-2.6 0-4.3-1.7-4.3-4.5s1.6-4.7 4-4.7 3.7 1.8 3.7 4.4v.8h-6c.2 1.8 1.3 2.7 2.9 2.7 1 0 1.7-.2 2.5-.8h.1V50c-.9.3-1.8.6-2.9.6zm-2.6-5.5h4.4c-.1-1.3-.7-2.3-2.1-2.3-1.3 0-2.1.9-2.3 2.3z"></path> <path d="M.4 12.8H44V.2H.4v12.6zM3.1 3h38.1v7.1H3.1V3z" fill="#01A982"></path> </svg>