<?xml version="1.0" encoding="utf-8"?>
<!-- Generator: Adobe Illustrator 24.1.2, SVG Export Plug-In . SVG Version: 6.00 Build 0)  -->
<svg version="1.1" id="Layer_1" xmlns="http://www.w3.org/2000/svg" xmlns:xlink="http://www.w3.org/1999/xlink" x="0px" y="0px"
	 viewBox="0 0 136 66" style="enable-background:new 0 0 136 66;" xml:space="preserve">
<style type="text/css">
	.st0{fill:#646569;}
	.st1{fill:#FF8300;}
</style>
<g>
	<path class="st0" d="M28.3531265,47.5906067c0-0.6860771-0.5115223-1.1102791-1.3215027-1.1102791
		c-0.6103516,0-1.109375,0.1871452-1.5700741,0.4865227V46.081131c0.3733768-0.2601433,1.034544-0.4597969,1.719799-0.4597969
		c1.3090115,0,2.0814991,0.721756,2.0814991,1.8944511v3.7513885h-0.9097214v-0.4116096
		c-0.2121449,0.224556-0.785078,0.5114326-1.4337349,0.5114326c-1.1343765,0-2.0565968-0.6736679-2.0565968-1.7696228
		c0-1.0337219,0.9222202-1.7323074,2.1064987-1.7323074c0.5738449,0,1.1467781,0.2370644,1.3838329,0.4491196V47.5906067z
		 M28.3531265,49.3229065c-0.1497326-0.4116974-0.6977558-0.6861649-1.2840919-0.6861649
		c-0.6727638,0-1.3214302,0.2993774-1.3214302,0.9606323c0,0.6735764,0.6486664,0.9854546,1.3214302,0.9854546
		c0.5863361,0,1.1343594-0.2744675,1.2840919-0.6860771V49.3229065z M40.106308,43.614666v7.6525078h-0.984623v-3.4894218
		h-4.3252411v3.4894218h-0.9855423V43.614666h0.9855423v3.2773628h4.3252411V43.614666H40.106308z M42.3973083,48.6634674
		c0.0364952,1.2831955,0.8473969,1.8944511,1.8569489,1.8944511c0.6228333,0,1.0719452-0.1497345,1.5700569-0.5239372v0.8589935
		c-0.4482002,0.3492889-1.0220451,0.4865227-1.6822891,0.4865227c-1.5950737,0-2.667942-1.0853691-2.667942-2.8300858
		c0-1.7197952,0.9980469-2.9280777,2.4682884-2.9280777c1.4961548,0,2.268734,1.0835495,2.268734,2.7035294v0.338604H42.3973083z
		 M42.4472198,47.925663h2.8540726c-0.0374107-0.8090782-0.4491119-1.5076561-1.3464203-1.5076561
		C43.2197037,46.4180069,42.6218719,46.9045296,42.4472198,47.925663z M52.0119705,49.9590721l1.2224998-4.2254066h0.9098129
		l-1.633297,5.5335083h-0.9098129l-1.1468697-4.2005043l-1.1592751,4.2005043h-0.9106331l-1.6324768-5.5335083h0.9347191
		l1.2216911,4.2254066l1.1343689-4.2254066h0.8348961L52.0119705,49.9590721z M56.0823441,51.2671738h-0.9356346V43.165554
		h0.9356346V51.2671738z M58.2432251,48.6634674c0.036499,1.2831955,0.8473969,1.8944511,1.8569412,1.8944511
		c0.6229362,0,1.0719643-0.1497345,1.5709763-0.5239372v0.8589935c-0.4491081,0.3492889-1.022953,0.4865227-1.6832085,0.4865227
		c-1.5950661,0-2.6678429-1.0853691-2.6678429-2.8300858c0-1.7197952,0.9979553-2.9280777,2.4681969-2.9280777
		c1.4961586,0,2.268734,1.0835495,2.268734,2.7035294v0.338604H58.2432251z M58.2931366,47.925663h2.8540764
		c-0.0374107-0.8090782-0.4491119-1.5076561-1.3464241-1.5076561C59.0656204,46.4180069,58.4677811,46.9045296,58.2931366,47.925663
		z M64.7934799,51.2671738h-0.9347191v-4.7369347h-1.1592751v-0.7965736h1.1592751v-1.459568h0.9347191v1.459568h1.2840195
		v0.7965736h-1.2840195V51.2671738z M68.9298401,51.2671738h-0.9356384v-4.7369347h-1.1592789v-0.7965736h1.1592789v-1.459568
		h0.9356384v1.459568h1.2830887v0.7965736h-1.2830887V51.2671738z M75.2849197,48.2019539v3.0652199h-0.9854584V43.614666h2.8299866
		c1.5451584,0,2.5556107,0.7841644,2.5556107,2.2918205c0,1.4970665-1.0104523,2.2954674-2.5556107,2.2954674H75.2849197z
		 M77.116951,44.4736519h-1.8320312V47.32864h1.8320312c1.0354538,0,1.5959778-0.5613441,1.5959778-1.4221535
		C78.7129288,45.0350876,78.1524048,44.4736519,77.116951,44.4736519z M83.7626495,47.5906067
		c0-0.6860771-0.5115204-1.1102791-1.3205948-1.1102791c-0.6112595,0-1.1102829,0.1871452-1.5718918,0.4865227V46.081131
		c0.3742905-0.2601433,1.0354538-0.4597969,1.7215347-0.4597969c1.3080978,0,2.0806732,0.721756,2.0806732,1.8944511v3.7513885
		h-0.9097214v-0.4116096c-0.2121429,0.224556-0.78508,0.5114326-1.4337463,0.5114326
		c-1.1343613,0-2.0574951-0.6736679-2.0574951-1.7696228c0-1.0337219,0.9231339-1.7323074,2.1074066-1.7323074
		c0.5738449,0,1.1467819,0.2370644,1.3838348,0.4491196V47.5906067z M83.7626495,49.3229065
		c-0.1497345-0.4116974-0.6986694-0.6861649-1.2841034-0.6861649c-0.6727524,0-1.3214188,0.2993774-1.3214188,0.9606323
		c0,0.6735764,0.6486664,0.9854546,1.3214188,0.9854546c0.585434,0,1.1343689-0.2744675,1.2841034-0.6860771V49.3229065z
		 M88.5155487,45.6213341c0.535614,0,1.0969696,0.1247406,1.4827423,0.4597969v0.9481277
		c-0.3982849-0.3991966-0.8838959-0.5738411-1.4203262-0.5738411c-0.9846344,0-1.7821198,0.7733994-1.7821198,2.0440903
		c0,1.2725105,0.7974854,2.044178,1.7821198,2.044178c0.5364304,0,1.0220413-0.1729126,1.4203262-0.572113v0.946312
		c-0.3857727,0.3368797-0.9471283,0.4616127-1.4827423,0.4616127c-1.4960632,0-2.6678314-1.1085472-2.6678314-2.8799896
		C85.8477173,46.7298851,87.0194855,45.6213341,88.5155487,45.6213341z M95.9114761,51.2671738h-1.1592789l-2.555603-2.7426643
		v2.7426643h-0.9347305V43.165554h0.9347305v4.8991661l2.45578-2.3310547h1.2091904l-2.7177582,2.5306091L95.9114761,51.2671738z
		 M99.7609482,47.5906067c0-0.6860771-0.5106125-1.1102791-1.3206024-1.1102791
		c-0.6112518,0-1.1093521,0.1871452-1.5700607,0.4865227V46.081131c0.372467-0.2601433,1.0336304-0.4597969,1.7197952-0.4597969
		c1.3080139,0,2.0815048,0.721756,2.0815048,1.8944511v3.7513885h-0.9106369v-0.4116096
		c-0.211235,0.224556-0.7841644,0.5114326-1.4329224,0.5114326c-1.1351852,0-2.0565872-0.6736679-2.0565872-1.7696228
		c0-1.0337219,0.921402-1.7323074,2.1064987-1.7323074c0.5738449,0,1.1468658,0.2370644,1.3830109,0.4491196V47.5906067z
		 M99.7609482,49.3229065c-0.1497269-0.4116974-0.696846-0.6861649-1.2831879-0.6861649
		c-0.6736679,0-1.3214188,0.2993774-1.3214188,0.9606323c0,0.6735764,0.6477509,0.9854546,1.3214188,0.9854546
		c0.5863419,0,1.133461-0.2744675,1.2831879-0.6860771V49.3229065z M105.0422516,46.6674728
		c-0.1496429-0.099823-0.385788-0.1496429-0.6228409-0.1496429c-0.5863495,0-1.0977783,0.3866997-1.2849274,1.0353661v3.7139778
		h-0.9347153v-5.5335083h0.9347153v0.7217522c0.2370605-0.4740181,0.760994-0.8340836,1.3722458-0.8340836
		c0.2361526,0,0.435791,0.0356865,0.5355225,0.085598V46.6674728z M109.7293625,50.6202393
		c-0.2735519,0.3974686-0.8723984,0.7592583-1.5584793,0.7592583c-1.6199722,0-2.4932861-1.3081055-2.4932861-2.8799896
		c0-1.5575676,0.8733139-2.8781738,2.4932861-2.8781738c0.6860809,0,1.2849274,0.3600655,1.5584793,0.7592621V43.165554h0.9471283
		v8.1016197h-0.9471283V50.6202393z M109.7293625,47.3785515c-0.2869644-0.5738449-0.8349915-0.9106331-1.4213333-0.9106331
		c-1.0594559,0-1.6822968,0.8607216-1.6822968,2.0315895c0,1.1726875,0.6228409,2.0334091,1.6822968,2.0334091
		c0.5863419,0,1.1343689-0.3367882,1.4213333-0.9106331V47.3785515z M26.5121536,56.0771866v0.8714943h-3.9020329v2.4183769
		h3.5402431v0.8732224h-3.5402431v2.6055145h3.9020329v0.8839035h-4.8750782v-7.6525116H26.5121536z M27.7525482,58.1961899
		h0.9356327v0.6968384c0.3233757-0.4348717,0.9222221-0.8091621,1.6323872-0.8091621
		c1.2591,0,1.9452667,0.8091621,1.9452667,2.0191803v3.6266518h-0.9481335v-3.4769173
		c0-0.7734909-0.3858776-1.3099251-1.2207775-1.3099251c-0.6486645,0-1.2091885,0.4367027-1.4087429,1.0354576v3.7513847h-0.9356327
		V58.1961899z M35.2500267,63.7296982h-0.9348106v-4.7369308h-1.1592789v-0.7965775h1.1592789v-1.4595642h0.9348106v1.4595642
		h1.2840118v0.7965775h-1.2840118V63.7296982z M38.0345726,61.1259995c0.0374107,1.2831917,0.8483124,1.8944435,1.8579483,1.8944435
		c0.6228409,0,1.0719528-0.1497307,1.5700645-0.5239296v0.8589859c-0.4482918,0.3492889-1.0221367,0.4865227-1.6823883,0.4865227
		c-1.59589,0-2.6678429-1.0853691-2.6678429-2.8282547c0-1.7215309,0.9970398-2.9299011,2.4682961-2.9299011
		c1.4960556,0,2.2686348,1.0835457,2.2686348,2.7053452v0.3367882H38.0345726z M38.0844841,60.3900108h2.8549881
		c-0.0374107-0.8108978-0.4491005-1.5094757-1.3464203-1.5094757
		C38.8579826,58.8805351,38.2591286,59.3670578,38.0844841,60.3900108z M45.9223137,59.1300011
		c-0.1496429-0.099823-0.385788-0.1496429-0.6228447-0.1496429c-0.5862465,0-1.0968666,0.3866997-1.2840118,1.0353661v3.713974
		h-0.9356308v-5.5335083h0.9356308v0.7234879c0.2370567-0.4740219,0.7600784-0.8358116,1.3713341-0.8358116
		c0.2361526,0,0.435791,0.0374107,0.5355225,0.0873222V59.1300011z M47.8987846,65.8486938h-0.9347191v-7.652504h0.9347191
		v0.6469345c0.2868767-0.3974686,0.8732224-0.7592583,1.5584793-0.7592583c1.633297,0,2.4931984,1.3455124,2.4931984,2.8799896
		c0,1.5326576-0.8599014,2.8781662-2.4931984,2.8781662c-0.685257,0-1.2716026-0.3617897-1.5584793-0.7592545V65.8486938z
		 M47.8987846,62.0848045c0.2868767,0.5738525,0.8348999,0.9106331,1.4212456,0.9106331
		c1.0594521,0,1.6822968-0.860714,1.6822968-2.0315819c0-1.1726875-0.6228447-2.0334167-1.6822968-2.0334167
		c-0.5863457,0-1.1343689,0.3367958-1.4212456,0.9106331V62.0848045z M56.0297852,59.1300011
		c-0.1497345-0.099823-0.3866997-0.1496429-0.6228447-0.1496429c-0.5863419,0-1.0977745,0.3866997-1.284008,1.0353661v3.713974
		h-0.9356346v-5.5335083h0.9356346v0.7234879c0.2360535-0.4740219,0.7600746-0.8358116,1.3704185-0.8358116
		c0.2370567,0,0.4366112,0.0374107,0.5364342,0.0873222V59.1300011z M57.5312347,57.1233253
		c-0.324379,0-0.5987549-0.2744675-0.5987549-0.5988464c0-0.3349648,0.2743759-0.5969353,0.5987549-0.5969353
		c0.3359756,0,0.6104317,0.2619705,0.6104317,0.5969353C58.1416664,56.8488579,57.8672104,57.1233253,57.5312347,57.1233253z
		 M58.0052567,63.7296982H57.069622v-5.5335083h0.9356346V63.7296982z M59.3178253,62.2968674
		c0.5115242,0.4741058,1.1467781,0.7484894,1.8204422,0.7484894c0.6104355,0,1.1468697-0.224556,1.1468697-0.7733994
		c0-0.4117012-0.3118706-0.6362572-0.7984009-0.7984009l-0.7600784-0.2619743
		c-0.8349876-0.272728-1.3963318-0.6719284-1.3963318-1.5700569c0-0.9713135,0.8607216-1.5576591,1.9567757-1.5576591
		c0.623745,0,1.1975899,0.1746445,1.6457901,0.4865227v0.9713135c-0.4615211-0.3866997-0.9721336-0.6611671-1.6457901-0.6611671
		c-0.5729408,0-1.0461426,0.2494659-1.0461426,0.7234879c0,0.4491119,0.2985573,0.5988464,0.8224869,0.7859879l0.8474007,0.2868729
		c0.8348999,0.286972,1.2965126,0.7716713,1.2965126,1.557663c0,1.0211296-0.9098129,1.6074753-2.0690918,1.6074753
		c-0.7234764,0-1.4087334-0.224556-1.8204422-0.5471115V62.2968674z M65.0215988,61.1259995
		c0.0374069,1.2831917,0.8483124,1.8944435,1.8578491,1.8944435c0.6228485,0,1.0719604-0.1497307,1.5709839-0.5239296v0.8589859
		c-0.4491119,0.3492889-1.0229568,0.4865227-1.6832123,0.4865227c-1.5958862,0-2.667923-1.0853691-2.667923-2.8282547
		c0-1.7215309,0.9971237-2.9299011,2.468277-2.9299011c1.4961548,0,2.2695541,1.0835457,2.2695541,2.7053452v0.3367882H65.0215988z
		 M65.0715103,60.3900108h2.8549881c-0.0374146-0.8108978-0.4491119-1.5094757-1.3464279-1.5094757
		C65.8449097,58.8805351,65.2461548,59.3670578,65.0715103,60.3900108z M75.2546234,58.0838661
		c0.5355225,0,1.0960464,0.1248207,1.4827423,0.4616127v0.946312c-0.3982849-0.3992004-0.8838959-0.572113-1.4203186-0.572113
		c-0.9855576,0-1.782135,0.7717514-1.782135,2.044178c0,1.2706909,0.7965775,2.0423546,1.782135,2.0423546
		c0.5364227,0,1.0220337-0.1729088,1.4203186-0.5721092v0.9463081c-0.3866959,0.3368797-0.9472198,0.4616127-1.4827423,0.4616127
		c-1.4969711,0-2.6678391-1.1085434-2.6678391-2.8781662C72.5867844,59.1924133,73.7576523,58.0838661,75.2546234,58.0838661z
		 M80.0788803,63.8420219c-1.5209808,0-2.5431137-1.1833649-2.5431137-2.8781662
		c0-1.6966209,1.0221329-2.8799896,2.5431137-2.8799896c1.5077438,0,2.5431976,1.1833687,2.5431976,2.8799896
		C82.6220779,62.6586571,81.5866241,63.8420219,80.0788803,63.8420219z M80.0788803,58.9054451
		c-0.9979477,0-1.5958939,0.8483124-1.5958939,2.0584106c0,1.2082787,0.5979462,2.0565872,1.5958939,2.0565872
		c0.9971313,0,1.5950623-0.8483086,1.5950623-2.0565872C81.6739426,59.7537575,81.0760117,58.9054451,80.0788803,58.9054451z
		 M89.4681549,58.0838661c1.1218643,0,1.7456207,0.7859917,1.7456207,1.9817696v3.6640625h-0.9481354v-3.514328
		c0-0.7734909-0.3367844-1.2849312-1.0461273-1.2849312c-0.561348,0-1.0478668,0.3867073-1.2225113,0.9854546v3.8138046h-0.9338913
		v-3.514328c0-0.7734909-0.3367996-1.2849312-1.0478745-1.2849312c-0.561348,0-1.0461349,0.3867073-1.2207794,0.9854546v3.8138046
		h-0.9356308v-5.5335083h0.9356308v0.6469345c0.2735519-0.4348793,0.8090744-0.7592583,1.4952469-0.7592583
		c0.6985855,0,1.2341003,0.3617897,1.4952393,0.8857231C88.1342316,58.4706573,88.6955795,58.0838661,89.4681549,58.0838661z
		 M93.6819763,65.8486938h-0.9355469v-7.652504h0.9355469v0.6469345c0.2869644-0.3974686,0.8733215-0.7592583,1.557663-0.7592583
		c1.6342163,0,2.493187,1.3455124,2.493187,2.8799896c0,1.5326576-0.8589706,2.8781662-2.493187,2.8781662
		c-0.6843414,0-1.2706985-0.3617897-1.557663-0.7592545V65.8486938z M93.6819763,62.0848045
		c0.2869644,0.5738525,0.8349991,0.9106331,1.4213333,0.9106331c1.0594559,0,1.6822968-0.860714,1.6822968-2.0315819
		c0-1.1726875-0.6228409-2.0334167-1.6822968-2.0334167c-0.5863342,0-1.1343689,0.3367958-1.4213333,0.9106331V62.0848045z
		 M102.091095,60.0531349c0-0.6860771-0.511528-1.1102791-1.3215179-1.1102791
		c-0.6112518,0-1.1093597,0.1871452-1.5700607,0.4865227v-0.8838997c0.3733826-0.2619705,1.0336304-0.4616127,1.7197952-0.4616127
		c1.3080978,0,2.0814972,0.721756,2.0814972,1.8944473v3.7513847h-0.9097137v-0.4116096
		c-0.2121506,0.224556-0.78508,0.5114326-1.4337463,0.5114326c-1.1343689,0-2.0565872-0.6736679-2.0565872-1.769619
		c0-1.0337257,0.9222183-1.7322998,2.1064987-1.7322998c0.5738449,0,1.1467819,0.2370491,1.3838348,0.4491081V60.0531349z
		 M102.091095,61.7854347c-0.1497345-0.4117012-0.6977615-0.6861687-1.2841034-0.6861687
		c-0.6735764,0-1.3214188,0.2993698-1.3214188,0.9606361c0,0.6735764,0.6478424,0.9854546,1.3214188,0.9854546
		c0.5863419,0,1.1343689-0.2743835,1.2841034-0.6860771V61.7854347z M104.5299072,58.1961899h0.9347305v0.6968384
		c0.3234558-0.4348717,0.9223022-0.8091621,1.6324692-0.8091621c1.2591095,0,1.9451752,0.8091621,1.9451752,2.0191803v3.6266518
		h-0.9480438v-3.4769173c0-0.7734909-0.3858643-1.3099251-1.2207642-1.3099251c-0.6487579,0-1.209198,0.4367027-1.4088364,1.0354576
		v3.7513847h-0.9347305V58.1961899z M111.0846329,65.8486938l0.8358154-2.0815849l-2.1564102-5.570919h1.0087204
		l1.6333923,4.3626442l1.6082916-4.3626442h0.972229l-2.9789047,7.652504H111.0846329z"/>
	<path class="st1" d="M77.1062775,20.9725819h-0.0017242c-0.0356903,7.2800426-5.8383713,13.1913967-12.962471,13.1913967
		c-7.1241074,0-12.9232292-5.9113541-12.9615517-13.1913967l0,0V9.7245378c0,0,6.1609116,1.5335674,6.2268829,8.1150312v3.0625725
		c0,3.9732952,3.02425,7.206131,6.7346687,7.206131c3.7122421,0,6.7284546-3.2323799,6.7321091-7.2025738v-6.4762573v-0.0347643
		v0.1202621c0.2584076-5.4840593,4.906189-7.2439995,6.100235-7.8133731h0.1318512v7.6931109V20.9725819z M43.7606163,7.8448753
		c1.7144089,0,3.3441582,0.3193607,4.850071,0.880331v6.9459076c-1.29916-1.1017923-2.9903984-1.7714453-4.850071-1.7714453
		c-4.085537,0-7.3959312,3.2220697-7.3959312,7.1936312v13.0706787h-6.2294369V21.3298931v-0.2365932V10.2943678
		c0,0,2.5502262,0.121623,4.2040577,1.2465992C36.788887,9.2567205,40.101017,7.8448753,43.7606163,7.8448753
		 M14.0318422,28.2798157c-4.1381845,0-7.5010462-3.2662334-7.5010462-7.2912655c0-4.02631,3.3628616-7.2938194,7.5010462-7.2938194
		c4.1399031,0,7.5027647,3.2675095,7.5027647,7.2938194C21.5346069,25.0135822,18.1717453,28.2798157,14.0318422,28.2798157
		 M14.0318422,7.8448753C6.5601773,7.8448753,0.5,13.7378902,0.5,21.0041466
		c0,7.2698288,6.0601773,13.1580086,13.5318422,13.1580086c3.091033,0,5.9326982-1.0135574,8.2129297-2.7137394
		c1.4017181,2.2794094,5.3241901,2.7137394,5.3241901,2.7137394v-2.1220131V21.5824699v-0.5783234
		C27.5689621,13.7378902,21.5105171,7.8448753,14.0318422,7.8448753 M121.9681549,28.2798157
		c-4.1434708,0-7.5046005-3.2662334-7.5046005-7.2912655c0-4.02631,3.3611298-7.2938194,7.5046005-7.2938194
		c4.1390915,0,7.4957428,3.2675095,7.4957428,7.2938194C129.4638977,25.0135822,126.1072464,28.2798157,121.9681549,28.2798157
		 M121.9681549,7.8448753c-7.4805069,0-13.5388641,5.8930149-13.5388641,13.1592712
		c0,7.2698288,6.0583572,13.1580086,13.5388641,13.1580086c3.0884857,0,5.9274216-1.0135574,8.2077332-2.7137394
		C131.5775146,33.7278252,135.5,34.1621552,135.5,34.1621552v-2.1220131V21.5824699v-0.5783234
		C135.5,13.7378902,129.4389038,7.8448753,121.9681549,7.8448753 M93.3523026,28.2798157
		c-4.1434708,0-7.5010376-3.2662334-7.5010376-7.2912655c0-4.02631,3.3575668-7.2938194,7.5010376-7.2938194
		c4.1399155,0,7.4993057,3.2675095,7.4993057,7.2938194C100.8516083,25.0135822,97.492218,28.2798157,93.3523026,28.2798157
		 M93.3523026,7.8448753c-2.7542496,0-5.3098602,0.8055096-7.4529495,2.1804085V7.966042
		c-0.2556686-5.4855037-4.7591934-7.24755-5.9505005-7.8147335h-0.135498v20.8528385v0.827879v10.2081165v2.2040405
		c0,0,4.0490265-0.4246559,5.5665359-2.629982c2.236618,1.59589,4.9855728,2.5479546,7.9724121,2.5479546
		c7.4743118,0,13.5353928-5.8881798,13.5353928-13.1580086C106.8876953,13.7378902,100.8266144,7.8448753,93.3523026,7.8448753"/>
</g>
</svg>
