<svg width="658" height="136" viewBox="0 0 658 136" fill="none" xmlns="http://www.w3.org/2000/svg">
<g clip-path="url(#clip0)">
<path d="M35.7183 23.7896C35.6484 7.35739 48.8283 0 48.8283 0C48.8283 0 53.2083 19.369 68.4035 38.1385C86.113 60.0075 94.3342 72.1411 94.3342 87.9635C94.3342 114.497 73.2125 136.01 47.1621 136.01C21.1117 136.01 0 114.487 0 87.9534C0 61.6537 23.2867 29.2975 28.7941 23.9928C28.7941 23.9928 29.1134 31.2892 32.5854 41.4107C35.7083 50.4855 35.0997 60.4038 31.2285 69.1737C28.9737 74.2853 27.2277 80.6163 27.2277 87.9534C27.2277 99.1622 36.1473 108.257 47.1621 108.257C58.1769 108.257 66.4779 98.2578 66.4779 87.9534C66.4879 67.9949 35.838 48.321 35.7183 23.7896Z" fill="url(#paint0_linear)"/>
<path d="M65.0811 80.2302C65.9691 82.8114 66.4879 85.3723 66.4879 87.9535C66.4879 98.2579 58.1769 108.257 47.1721 108.257C36.1672 108.257 27.2377 99.1725 27.2377 87.9535C27.2377 80.6164 28.9837 74.2854 31.2385 69.1738C35.0997 60.4039 35.7083 50.4856 32.5954 41.4108C29.1234 31.2995 28.8041 23.9929 28.8041 23.9929C23.2867 29.3077 0 61.6538 0 87.9535C0 104.233 7.95181 118.613 20.104 127.301C51.562 134.455 76.4451 108.898 65.0811 80.2302Z" fill="url(#paint1_linear)"/>
</g>
<path d="M182.523 66.0544C190.029 66.0544 196.09 66.0544 196.09 66.0544V74.27C198.586 69.0591 203.073 66.0544 209.857 66.0544H214.538V79.3807H206.663C199.381 79.3807 196.19 83.1894 196.19 92.5066V116.154H182.523V66.0544Z" fill="#190F1A"/>
<path d="M214.818 91.1043C214.818 76.6763 226.291 65.0527 240.657 65.0527C255.022 65.0527 266.495 76.6763 266.495 91.1043C266.495 105.532 255.022 117.156 240.657 117.156C226.291 117.156 214.818 105.532 214.818 91.1043ZM253.227 91.1043C253.227 83.9905 247.64 78.0785 240.657 78.0785C233.574 78.0785 228.186 83.9877 228.186 91.1043C228.186 98.2181 233.574 104.13 240.657 104.13C247.64 104.13 253.227 98.2181 253.227 91.1043Z" fill="#190F1A"/>
<path d="M271.985 66.0543H285.553V71.3653C288.647 67.4565 293.234 65.0527 298.821 65.0527C305.904 65.0527 311.192 67.8599 314.186 72.9678C317.58 68.1575 323.264 65.0527 329.748 65.0527C342.418 65.0527 348.701 72.6673 348.701 85.5929V116.154H334.834V87.3957C334.834 80.6826 332.239 76.7765 326.153 76.7765C320.965 76.7765 317.175 80.3821 317.175 88.8007V116.154H303.306V87.3957C303.306 80.6826 300.713 76.7765 294.627 76.7765C289.439 76.7765 285.65 80.3821 285.65 88.8007V116.154H271.983V66.0543H271.985Z" fill="#190F1A"/>
<path d="M411.968 63.5867C411.968 55.3461 418.704 51.3288 425.635 49.1003V66.0544H437.05V78.3791H425.635V95.4612C425.635 103.276 428.119 103.757 437.05 103.248V116.074C437.05 116.074 434.546 116.583 432.183 116.583C416.411 116.583 411.97 111.795 411.97 95.4612V63.5867H411.968Z" fill="#190F1A"/>
<path d="M443.127 45.0552H456.695V71.5658C459.985 67.5568 464.775 65.0529 470.461 65.0529C482.234 65.0529 489.317 72.6675 489.317 85.5931V116.154H475.447V87.4988C475.447 80.6855 472.353 76.7766 466.268 76.7766C461.079 76.7766 456.791 80.3822 456.791 88.8009V116.154H443.124V45.0552H443.127Z" fill="#190F1A"/>
<path d="M550.573 91.1043C550.573 73.3684 563.542 65.0527 574.816 65.0527C581.297 65.0527 586.389 67.4565 589.679 70.9647V66.0543H603.347V116.154H589.679V110.543C586.389 114.452 581.101 117.159 574.613 117.159C564.04 117.156 550.573 108.737 550.573 91.1043ZM590.078 91.0041C590.078 83.5898 584.691 77.5777 577.309 77.5777C569.727 77.5777 563.941 83.2894 563.941 91.0041C563.941 98.7189 569.727 104.531 577.309 104.531C584.691 104.531 590.078 98.4184 590.078 91.0041Z" fill="#190F1A"/>
<path d="M610.834 66.0544H624.401V71.6659C627.592 67.5567 632.481 65.05 638.168 65.05C649.941 65.05 657.024 72.6647 657.024 85.5903V116.152H643.154V87.3958C643.154 80.6827 640.06 76.7766 633.974 76.7766C628.786 76.7766 624.498 80.3822 624.498 88.8008V116.154H610.831V66.0544H610.834Z" fill="#190F1A"/>
<path d="M151.909 45.0552H124.405V116.152H138.272V57.978H150.911C158.792 57.978 164.18 63.89 164.18 71.2041C164.18 78.5182 158.792 84.4302 150.911 84.4302H138.953C138.953 84.4302 144.178 100.288 159.98 96.1512C170.819 92.8266 178.146 82.9668 178.146 71.2041C178.143 56.676 166.969 45.0552 151.909 45.0552Z" fill="#190F1A"/>
<path d="M494.563 90.8291C494.707 75.7334 507.942 63.915 522.923 65.1531C536.861 66.3021 546.238 77.3554 546.238 91.0043V96.0149H507.729C509.325 101.526 513.815 105.132 520.998 105.132C523.46 105.132 525.74 104.528 527.704 103.426C531.72 101.176 536.485 100.719 540.748 102.45L544.141 103.827C539.85 111.645 531.969 117.156 520.898 117.156C505.236 117.156 494.425 105.385 494.563 90.8291ZM508.328 84.9922H532.471C530.676 79.7813 526.385 77.0771 520.599 77.0771C514.815 77.0771 510.424 80.2821 508.328 84.9922Z" fill="#190F1A"/>
<path d="M354.446 90.8291C354.59 75.7334 367.825 63.915 382.805 65.1531C396.744 66.3021 406.12 77.3554 406.12 91.0043V96.0149H367.611C369.207 101.526 373.697 105.132 380.88 105.132C383.342 105.132 385.622 104.528 387.586 103.426C391.602 101.176 396.367 100.719 400.63 102.45L404.023 103.827C399.732 111.645 391.852 117.156 380.78 117.156C365.121 117.156 354.307 105.385 354.446 90.8291ZM368.213 84.9922H392.356C390.561 79.7813 386.27 77.0771 380.484 77.0771C374.697 77.0771 370.307 80.2821 368.213 84.9922Z" fill="#190F1A"/>
<defs>
<linearGradient id="paint0_linear" x1="0" y1="67.9991" x2="94.3373" y2="67.9991" gradientUnits="userSpaceOnUse">
<stop stop-color="#FF3800"/>
<stop offset="0.5025" stop-color="#F71C00"/>
<stop offset="1" stop-color="#EF0000"/>
</linearGradient>
<linearGradient id="paint1_linear" x1="56.5802" y1="119.238" x2="-0.59927" y2="47.384" gradientUnits="userSpaceOnUse">
<stop stop-color="#990000"/>
<stop offset="0.4" stop-color="#FF0000" stop-opacity="0"/>
</linearGradient>
<clipPath id="clip0">
<rect width="94.3342" height="136" fill="white"/>
</clipPath>
</defs>
</svg>
