<svg width="80" height="80" viewBox="0 0 80 80" fill="none" xmlns="http://www.w3.org/2000/svg">
<path d="M64.9999 72.5H64.5749C15.4499 69.675 8.47489 28.225 7.49989 15.575C7.42132 14.5915 7.53761 13.6021 7.84207 12.6635C8.14654 11.725 8.6332 10.8558 9.27418 10.1056C9.91516 9.3555 10.6979 8.73922 11.5774 8.2921C12.457 7.84498 13.4161 7.5758 14.3999 7.5H28.1749C29.1763 7.49903 30.1549 7.79878 30.984 8.36041C31.813 8.92204 32.4544 9.71968 32.8249 10.65L36.6249 20C36.9908 20.9089 37.0816 21.9052 36.886 22.8652C36.6904 23.8253 36.2171 24.7067 35.5249 25.4L30.1999 30.775C31.0317 35.5019 33.2953 39.8592 36.6846 43.2574C40.0739 46.6556 44.4252 48.9308 49.1499 49.775L54.5749 44.4C55.2786 43.7154 56.1684 43.2531 57.1331 43.0708C58.0978 42.8886 59.0949 42.9944 59.9999 43.375L69.4249 47.15C70.3412 47.5322 71.123 48.1786 71.6706 49.0067C72.2182 49.8348 72.5069 50.8072 72.4999 51.8V65C72.4999 66.9891 71.7097 68.8968 70.3032 70.3033C68.8967 71.7098 66.989 72.5 64.9999 72.5ZM14.9999 12.5C14.3368 12.5 13.701 12.7634 13.2321 13.2322C12.7633 13.7011 12.4999 14.337 12.4999 15V15.2C13.6499 30 21.0249 65 64.8499 67.5C65.1783 67.5203 65.5075 67.4756 65.8186 67.3683C66.1298 67.2611 66.4166 67.0936 66.6628 66.8752C66.909 66.6569 67.1097 66.3921 67.2534 66.0961C67.397 65.8 67.4808 65.4785 67.4999 65.15V51.8L58.0749 48.025L50.8999 55.15L49.6999 55C27.9499 52.275 24.9999 30.525 24.9999 30.3L24.8499 29.1L31.9499 21.925L28.1999 12.5H14.9999Z" fill="#DD9933"/>
</svg>
