<svg width="72" height="72" viewBox="0 0 72 72" fill="none" xmlns="http://www.w3.org/2000/svg">
<path d="M63 22.5H54V4.5H49.5V22.5H29.25V18H24.75V22.5H18V18H13.5V22.5H9C7.80653 22.5 6.66193 22.9741 5.81802 23.818C4.97411 24.6619 4.5 25.8065 4.5 27V63C4.5 64.1935 4.97411 65.3381 5.81802 66.182C6.66193 67.0259 7.80653 67.5 9 67.5H63C64.1935 67.5 65.3381 67.0259 66.182 66.182C67.0259 65.3381 67.5 64.1935 67.5 63V27C67.5 25.8065 67.0259 24.6619 66.182 23.818C65.3381 22.9741 64.1935 22.5 63 22.5ZM9 63V27H63V63H9Z" fill="white"/>
<path d="M22.5 58.5C20.72 58.5 18.9799 57.9722 17.4999 56.9832C16.0198 55.9943 14.8663 54.5887 14.1851 52.9441C13.5039 51.2996 13.3257 49.49 13.6729 47.7442C14.0202 45.9984 14.8774 44.3947 16.136 43.136C17.3947 41.8774 18.9984 41.0202 20.7442 40.6729C22.49 40.3257 24.2996 40.5039 25.9442 41.1851C27.5887 41.8663 28.9943 43.0198 29.9832 44.4999C30.9722 45.9799 31.5 47.72 31.5 49.5C31.5 51.8869 30.5518 54.1761 28.864 55.864C27.1761 57.5518 24.887 58.5 22.5 58.5ZM22.5 45C21.61 45 20.74 45.2639 19.9999 45.7584C19.2599 46.2529 18.6831 46.9557 18.3425 47.7779C18.002 48.6002 17.9128 49.505 18.0865 50.3779C18.2601 51.2508 18.6887 52.0526 19.318 52.682C19.9474 53.3113 20.7492 53.7399 21.6221 53.9135C22.495 54.0872 23.3998 53.9981 24.2221 53.6575C25.0443 53.3169 25.7472 52.7401 26.2416 52.0001C26.7361 51.26 27 50.39 27 49.5C27 48.3065 26.5259 47.1619 25.682 46.318C24.8381 45.4741 23.6935 45 22.5 45ZM15.75 31.5H29.25V36H15.75V31.5ZM38.25 36H58.5V40.5H38.25V36ZM38.25 45H58.5V49.5H38.25V45ZM38.25 54H58.5V58.5H38.25V54Z" fill="white"/>
</svg>
