<svg width="54" height="64" viewBox="0 0 54 64" xmlns="http://www.w3.org/2000/svg">
<path d="M22.5 33.3275L16.6725 27.5L13.5 30.6725L22.5 39.6725L40.5 21.6725L37.3275 18.5L22.5 33.3275Z" fill="white"/>
<path d="M27 63.5L13.104 56.0908C9.1425 53.9832 5.82968 50.8367 3.52107 46.9889C1.21247 43.1411 -0.00476965 38.7372 -1.30299e-06 34.25V5C0.00119002 3.80689 0.475679 2.66299 1.31933 1.81934C2.16299 0.97568 3.30689 0.501191 4.5 0.5H49.5C50.6931 0.501191 51.837 0.97568 52.6807 1.81934C53.5243 2.66299 53.9988 3.80689 54 5V34.25C54.0048 38.7372 52.7875 43.1411 50.4789 46.9889C48.1703 50.8367 44.8575 53.9832 40.896 56.0908L27 63.5ZM4.5 5V34.25C4.49626 37.9216 5.49248 41.5248 7.38172 44.673C9.27095 47.8212 11.9819 50.3955 15.2235 52.1195L27 58.3993L38.7765 52.1217C42.0185 50.3976 44.7296 47.8229 46.6189 44.6743C48.5081 41.5257 49.5041 37.9219 49.5 34.25V5H4.5Z" fill="white"/>
</svg>
