<svg width="72" height="72" viewBox="0 0 72 72" fill="none" xmlns="http://www.w3.org/2000/svg">
<path d="M54 6.75H18C16.8065 6.75 15.6619 7.22411 14.818 8.06802C13.9741 8.91193 13.5 10.0565 13.5 11.25V60.75C13.5 61.9435 13.9741 63.0881 14.818 63.932C15.6619 64.7759 16.8065 65.25 18 65.25H54C55.1935 65.25 56.3381 64.7759 57.182 63.932C58.0259 63.0881 58.5 61.9435 58.5 60.75V11.25C58.5 10.0565 58.0259 8.91193 57.182 8.06802C56.3381 7.22411 55.1935 6.75 54 6.75ZM54 11.25V24.75H18V11.25H54ZM18 42.75V29.25H54V42.75H18ZM18 60.75V47.25H54V60.75H18Z" fill="white"/>
<path d="M24.75 20.25C25.9926 20.25 27 19.2426 27 18C27 16.7574 25.9926 15.75 24.75 15.75C23.5074 15.75 22.5 16.7574 22.5 18C22.5 19.2426 23.5074 20.25 24.75 20.25Z" fill="white"/>
<path d="M24.75 38.25C25.9926 38.25 27 37.2426 27 36C27 34.7574 25.9926 33.75 24.75 33.75C23.5074 33.75 22.5 34.7574 22.5 36C22.5 37.2426 23.5074 38.25 24.75 38.25Z" fill="white"/>
<path d="M24.75 56.25C25.9926 56.25 27 55.2426 27 54C27 52.7574 25.9926 51.75 24.75 51.75C23.5074 51.75 22.5 52.7574 22.5 54C22.5 55.2426 23.5074 56.25 24.75 56.25Z" fill="white"/>
</svg>
